<?xml version="1.0" encoding="UTF-8" standalone="no"?>
<!-- Created with Inkscape (http://www.inkscape.org/) -->

<svg
   xmlns:dc="http://purl.org/dc/elements/1.1/"
   xmlns:cc="http://creativecommons.org/ns#"
   xmlns:rdf="http://www.w3.org/1999/02/22-rdf-syntax-ns#"
   xmlns:svg="http://www.w3.org/2000/svg"
   xmlns="http://www.w3.org/2000/svg"
   xmlns:sodipodi="http://sodipodi.sourceforge.net/DTD/sodipodi-0.dtd"
   xmlns:inkscape="http://www.inkscape.org/namespaces/inkscape"
   width="700"
   height="300"
   id="svg3163"
   version="1.1"
   inkscape:version="0.48.4 r9939"
   sodipodi:docname="concordance-700-300.svg">
  <defs
     id="defs3165">
    <filter
       color-interpolation-filters="sRGB"
       height="1.2451"
       width="1.2451"
       y="-0.12255"
       x="-0.12255"
       id="c-0">
      <feGaussianBlur
         id="feGaussianBlur6465"
         stdDeviation="30.05471" />
    </filter>
    <linearGradient
       gradientUnits="userSpaceOnUse"
       y2="720.92999"
       y1="215.22"
       x2="720"
       x1="200"
       id="b-6">
      <stop
         id="stop6468"
         offset="0"
         stop-color="#ccc" />
      <stop
         id="stop6470"
         offset="1"
         stop-opacity="0"
         stop-color="#ccc" />
    </linearGradient>
    <radialGradient
       gradientUnits="userSpaceOnUse"
       gradientTransform="matrix(1.4586,0.05256,-0.05331,1.4796,-179.19,-286.06)"
       r="294.29001"
       cy="546.65002"
       cx="454.29001"
       id="a-2">
      <stop
         id="stop6473"
         offset="0"
         stop-opacity="0"
         stop-color="#fff5f5" />
      <stop
         id="stop6475"
         offset="1"
         stop-color="#1a0000" />
    </radialGradient>
    <filter
       color-interpolation-filters="sRGB"
       id="d-6">
      <feGaussianBlur
         id="feGaussianBlur6462"
         stdDeviation="9.52917" />
    </filter>
  </defs>
  <sodipodi:namedview
     id="base"
     pagecolor="#ffffff"
     bordercolor="#666666"
     borderopacity="1.0"
     inkscape:pageopacity="0.0"
     inkscape:pageshadow="2"
     inkscape:zoom="1"
     inkscape:cx="363.13501"
     inkscape:cy="160"
     inkscape:document-units="px"
     inkscape:current-layer="layer1"
     showgrid="false"
     inkscape:window-width="1338"
     inkscape:window-height="880"
     inkscape:window-x="75"
     inkscape:window-y="172"
     inkscape:window-maximized="0" />
  <metadata
     id="metadata3168">
    <rdf:RDF>
      <cc:Work
         rdf:about="">
        <dc:format>image/svg+xml</dc:format>
        <dc:type
           rdf:resource="http://purl.org/dc/dcmitype/StillImage" />
        <dc:title />
      </cc:Work>
    </rdf:RDF>
  </metadata>
  <g
     inkscape:label="Layer 1"
     inkscape:groupmode="layer"
     id="layer1"
     transform="translate(0,-752.36218)">
    <g
       id="g6477"
       transform="matrix(0.9946191,0,0,0.9946191,-154.41175,482.61001)">
      <path
         id="path6479"
         d="m 748.57,546.65 c 0,162.53 -131.76,294.29 -294.29,294.29 -162.53,0 -294.29,-131.76 -294.29,-294.29 0,-162.53 131.76,-294.29 294.29,-294.29 162.53,0 294.29,131.76 294.29,294.29 z"
         transform="matrix(0.40178,0,0,0.40178,324.62,202.39)"
         inkscape:connector-curvature="0"
         style="stroke:#777777;stroke-width:5" />
      <path
         style="filter:url(#c-0)"
         id="path6481"
         d="m 748.57,546.65 c 0,162.53 -131.76,294.29 -294.29,294.29 -162.53,0 -294.29,-131.76 -294.29,-294.29 0,-162.53 131.76,-294.29 294.29,-294.29 162.53,0 294.29,131.76 294.29,294.29 z"
         transform="matrix(0.40178,0,0,0.40178,324.62,202.39)"
         inkscape:connector-curvature="0" />
      <path
         style="fill:url(#b-6)"
         id="path6483"
         d="m 748.57,546.65 c 0,162.53 -131.76,294.29 -294.29,294.29 -162.53,0 -294.29,-131.76 -294.29,-294.29 0,-162.53 131.76,-294.29 294.29,-294.29 162.53,0 294.29,131.76 294.29,294.29 z"
         transform="matrix(0.40178,0,0,0.40178,324.62,202.39)"
         inkscape:connector-curvature="0" />
      <path
         id="path6485"
         d="m 748.57,546.65 c 0,162.53 -131.76,294.29 -294.29,294.29 -162.53,0 -294.29,-131.76 -294.29,-294.29 0,-162.53 131.76,-294.29 294.29,-294.29 162.53,0 294.29,131.76 294.29,294.29 z"
         transform="matrix(0.3573,0,0,0.3573,344.83,226.7)"
         inkscape:connector-curvature="0" />
      <path
         id="path6487"
         d="m 510.27,350.59 c -2.3693,0.26262 -4.4614,2.1079 -5.195,4.6458 l -1.4356,4.8996 -10.643,-6.1243 c -0.85102,-0.49178 -1.7374,-0.80743 -2.6187,-0.88697 -1.3219,-0.11996 -2.7183,0.39077 -3.5902,1.3939 -0.8719,1.00313 -1.2248,2.3251 -1.2248,3.7594 v 11.234 l -10.77,-6.1666 c -1.1685,-0.66792 -2.2569,-1.1073 -3.5479,-0.92928 -1.0454,0.14456 -2.1117,0.96652 -2.4917,1.9848 -0.38,1.01828 -0.30744,2.06 0,3.1256 l 15.627,54.06 c 0.97911,3.3895 3.8869,6.8067 7.0535,8.616 l 31.043,17.739 c 0.83209,0.47538 1.6926,0.82448 2.5341,0.92928 2.9525,-0.16098 4.3642,-1.8365 5.659,-4.6458 l 18.5,-64.113 c 1.1149,-3.8611 -0.45329,-8.2019 -3.8856,-10.221 l -31.296,-18.414 c -0.87119,-0.51263 -1.7885,-0.8106 -2.7026,-0.88699 -0.34722,-0.029 -0.67547,-0.0379 -1.0145,0 z m 0.67612,3.6319 c 0.35357,0.029 0.77022,0.13762 1.1824,0.38004 l 31.296,18.414 c 1.7014,1.0012 2.8143,3.9406 2.1963,6.082 l -15.923,55.159 v -25.425 l 5.9974,-20.738 -5.9974,-3.5056 v -2.9558 c 0,-3.8453 -2.2487,-7.7505 -5.575,-9.6716 l -17.19,-9.9254 1.6893,-5.7859 c 0.46273,-1.6022 1.2998,-2.113 2.3232,-2.0278 z m -21.244,2.534 c 0.0663,-0.0284 0.15782,-0.0164 0.33778,0 0.23987,0.0215 0.65278,0.12248 1.0985,0.38005 l 31.127,17.95 c 1.8605,1.0745 3.8011,4.4021 3.8011,6.5466 v 53.807 l -5.9551,-20.61 c 1.344,-4.5132 1.1477,-10.834 -0.92992,-17.57 -3.4791,-11.28 -10.976,-19.627 -17.19,-19.555 -0.41407,0.005 -0.82317,0.0454 -1.2247,0.12689 -0.14834,0.0303 -0.27844,0.0852 -0.42236,0.12689 l -11.149,-6.3787 v -13.303 c 0,-0.81249 0.2146,-1.2096 0.3377,-1.3516 0.0619,-0.0713 0.10294,-0.14078 0.16919,-0.16919 z m -17.401,9.503 c 0.10166,-0.113 0.45265,0.14267 0.7178,0.29608 l 31.042,17.738 c 2.0978,1.1982 4.6754,4.4349 5.2373,6.3774 l 15.627,54.103 c 0.12946,0.47979 -0.49049,0.0644 -0.67547,-0.0423 l -31.042,-17.739 c -2.0921,-1.1957 -4.7215,-4.4892 -5.279,-6.4197 l -15.627,-54.061 c -0.0315,-0.13763 -0.0354,-0.21527 0,-0.25315 z m 18.118,21.202 -2.7872,25.383 29.311,16.895 -26.524,-42.278 z m 53.554,28.551 -1.1824,4.0549 29.395,16.979 c -7.3268,3.1679 -13.822,2.4836 -20.484,3.5473 -3.8049,0.60795 -7.6463,1.8832 -11.235,4.8996 -3.2487,2.7316 -6.2518,6.9191 -9.1223,13.05 -4.0126,-1.9507 -7.4923,-2.5265 -10.516,-1.6894 -3.5012,0.97031 -6.0965,3.5151 -8.4885,6.462 -2.743,3.3781 -5.3724,7.3825 -8.7429,11.15 -2.558,2.5606 -5.1009,5.0567 -8.1514,7.0106 l -52.456,-30.282 c 7.188,-4.3434 12.731,-10.829 19.597,-15.586 2.9867,-2.1041 5.8067,-3.5056 8.8269,-3.8427 3.0959,-0.34659 6.5239,0.32891 10.855,2.8289 l 1.9003,1.1401 c 0.48607,-1.1307 1.0107,-2.2575 1.5208,-3.3787 -2.0498,-1.0814 -4.2783,-2.5423 -6.2929,-3.3794 -2.9279,-1.2146 -5.765,-1.435 -8.4045,-1.1401 -4.0252,0.44949 -7.5756,2.2847 -10.939,4.6881 -6.7259,4.808 -13.019,11.906 -21.877,17.021 l -9.9677,5.9551 65.76,37.97 30.368,-17.528 c 1.2948,3.0422 6.2474,3.7076 10.475,1.267 4.2222,-2.4381 6.4311,-7.2486 7.7284,-11.783 l 43.544,-25.13 -42.109,-24.284 z"
         inkscape:connector-curvature="0"
         style="fill:#ffffff" />
      <path
         style="opacity:0.61905003;fill:url(#a-2)"
         id="path6489"
         d="m 748.57,546.65 c 0,162.53 -131.76,294.29 -294.29,294.29 -162.53,0 -294.29,-131.76 -294.29,-294.29 0,-162.53 131.76,-294.29 294.29,-294.29 162.53,0 294.29,131.76 294.29,294.29 z"
         transform="matrix(0.3573,0,0,0.3573,344.83,226.7)"
         inkscape:connector-curvature="0" />
      <path
         id="path6491"
         d="m 612.3,422.02 c 0,58.072 -17.146,-57.435 -105.15,-22.274 C 438.454,427.193 402,480.092 402,422.02 c 0,-58.072 47.077,-105.15 105.15,-105.15 58.073,0 105.15,47.077 105.15,105.15 z"
         inkscape:connector-curvature="0"
         style="opacity:0.31602005;fill:#ffffff" />
      <path
         style="opacity:0.18182002;fill:#ffffff;filter:url(#d-6)"
         id="path6493"
         d="m 1313.5,221.16 c -4.2837,129.82 -110.84,233.73 -241.7,233.73 -121.09,0 -221.41,-88.986 -239.1,-205.14 -0.0903,2.7154 -0.11552,5.4358 -0.11552,8.1732 0,133.58 108.27,241.85 241.85002,241.85 133.58,0 241.88,-108.27 241.88,-241.85 0,-12.503 -0.972,-24.773 -2.8015,-36.765 z"
         transform="matrix(0.40178,0,0,0.40178,75.517,325.22)"
         inkscape:connector-curvature="0" />
    </g>
  </g>
</svg>
