<?xml version="1.0" encoding="UTF-8" standalone="no"?>
<!-- Created with Inkscape (http://www.inkscape.org/) -->

<svg
   xmlns:dc="http://purl.org/dc/elements/1.1/"
   xmlns:cc="http://creativecommons.org/ns#"
   xmlns:rdf="http://www.w3.org/1999/02/22-rdf-syntax-ns#"
   xmlns:svg="http://www.w3.org/2000/svg"
   xmlns="http://www.w3.org/2000/svg"
   xmlns:xlink="http://www.w3.org/1999/xlink"
   xmlns:sodipodi="http://sodipodi.sourceforge.net/DTD/sodipodi-0.dtd"
   xmlns:inkscape="http://www.inkscape.org/namespaces/inkscape"
   width="700"
   height="450"
   id="svg11370"
   version="1.1"
   inkscape:version="0.48.4 r9939"
   sodipodi:docname="New document 39">
  <defs
     id="defs11372">
    <linearGradient
       xlink:href="#a"
       gradientUnits="userSpaceOnUse"
       gradientTransform="matrix(0.33211,0,0,0.911,164.4,-720.32)"
       y2="737.13"
       y1="768.49"
       x2="361.38"
       x1="361.38"
       id="cy" />
    <linearGradient
       xlink:href="#a"
       gradientUnits="userSpaceOnUse"
       gradientTransform="matrix(0.88851,0,0,0.88851,-29.552,-637.19)"
       y2="663.96"
       y1="674.82"
       x2="263.9"
       x1="284.61"
       id="cx" />
    <linearGradient
       xlink:href="#a"
       gradientUnits="userSpaceOnUse"
       gradientTransform="matrix(0.88851,0,0,0.88851,-50.532,-637.19)"
       y2="663.96"
       y1="674.82"
       x2="263.9"
       x1="284.61"
       id="cw" />
    <linearGradient
       xlink:href="#a"
       gradientUnits="userSpaceOnUse"
       gradientTransform="matrix(0.88851,0,0,0.88851,-72.072,-637.19)"
       y2="663.96"
       y1="674.82"
       x2="263.9"
       x1="284.61"
       id="cv" />
    <linearGradient
       xlink:href="#a"
       gradientUnits="userSpaceOnUse"
       gradientTransform="matrix(0.88851,0,0,0.88851,-93.052,-637.19)"
       y2="663.96"
       y1="674.82"
       x2="263.9"
       x1="284.61"
       id="cu" />
    <linearGradient
       xlink:href="#a"
       gradientUnits="userSpaceOnUse"
       gradientTransform="matrix(0.88851,0,0,0.88851,13.193,-637.08)"
       y2="663.96"
       y1="674.82"
       x2="263.9"
       x1="284.61"
       id="ct" />
    <linearGradient
       xlink:href="#a"
       gradientUnits="userSpaceOnUse"
       gradientTransform="matrix(0.88851,0,0,0.88851,-7.7874,-637.08)"
       y2="663.96"
       y1="674.82"
       x2="263.9"
       x1="284.61"
       id="cs" />
    <linearGradient
       xlink:href="#a"
       gradientUnits="userSpaceOnUse"
       gradientTransform="matrix(0.88851,0,0,0.88851,-114.48,-637.19)"
       y2="663.96"
       y1="674.82"
       x2="263.9"
       x1="284.61"
       id="cr" />
    <linearGradient
       xlink:href="#a"
       gradientUnits="userSpaceOnUse"
       gradientTransform="matrix(0.88851,0,0,0.88851,-135.46,-637.19)"
       y2="663.96"
       y1="674.82"
       x2="263.9"
       x1="284.61"
       id="cq" />
    <linearGradient
       xlink:href="#a"
       gradientUnits="userSpaceOnUse"
       gradientTransform="matrix(0.88851,0,0,0.88851,-157,-637.19)"
       y2="663.96"
       y1="674.82"
       x2="263.9"
       x1="284.61"
       id="cp" />
    <linearGradient
       xlink:href="#a"
       gradientUnits="userSpaceOnUse"
       gradientTransform="matrix(0.88851,0,0,0.88851,-177.98,-637.19)"
       y2="663.96"
       y1="674.82"
       x2="263.9"
       x1="284.61"
       id="co" />
    <linearGradient
       gradientUnits="userSpaceOnUse"
       gradientTransform="matrix(0.8857,0,0,0.86949,-173.09,-633.75)"
       y2="287.42"
       y1="268.74"
       x2="397.24"
       x1="397.24"
       id="cn">
      <stop
         id="stop11541"
         offset="0"
         stop-color="#6a6a6a" />
      <stop
         id="stop11543"
         offset=".2513"
         stop-color="#d5cece" />
      <stop
         id="stop11545"
         offset=".62565"
         stop-color="#cfcfcf" />
      <stop
         id="stop11547"
         offset="1"
         stop-color="#a4a4a4" />
    </linearGradient>
    <linearGradient
       xlink:href="#a"
       gradientUnits="userSpaceOnUse"
       gradientTransform="matrix(0.88851,0,0,0.88851,-174.39,-639.21)"
       y2="674.07"
       y1="741.24"
       x2="478.18"
       x1="534.12"
       id="cm" />
    <linearGradient
       xlink:href="#a"
       gradientUnits="userSpaceOnUse"
       gradientTransform="matrix(0.88851,0,0,0.88851,-29.608,-573.13)"
       y2="663.96"
       y1="674.82"
       x2="263.9"
       x1="284.61"
       id="cl" />
    <linearGradient
       xlink:href="#a"
       gradientUnits="userSpaceOnUse"
       gradientTransform="matrix(0.88851,0,0,0.88851,-156.89,-573.19)"
       y2="663.96"
       y1="674.82"
       x2="263.9"
       x1="284.61"
       id="ck" />
    <linearGradient
       xlink:href="#a"
       gradientUnits="userSpaceOnUse"
       gradientTransform="matrix(0.88851,0,0,0.88851,-177.87,-573.19)"
       y2="663.96"
       y1="674.82"
       x2="263.9"
       x1="284.61"
       id="cj" />
    <linearGradient
       xlink:href="#a"
       gradientUnits="userSpaceOnUse"
       gradientTransform="matrix(0.88851,0,0,0.88851,-29.552,-594.73)"
       y2="663.96"
       y1="674.82"
       x2="263.9"
       x1="284.61"
       id="ci" />
    <linearGradient
       xlink:href="#a"
       gradientUnits="userSpaceOnUse"
       gradientTransform="matrix(0.88851,0,0,0.88851,-50.532,-594.73)"
       y2="663.96"
       y1="674.82"
       x2="263.9"
       x1="284.61"
       id="ch" />
    <linearGradient
       xlink:href="#a"
       gradientUnits="userSpaceOnUse"
       gradientTransform="matrix(0.88851,0,0,0.88851,-72.072,-594.73)"
       y2="663.96"
       y1="674.82"
       x2="263.9"
       x1="284.61"
       id="ey" />
    <linearGradient
       xlink:href="#a"
       gradientUnits="userSpaceOnUse"
       gradientTransform="matrix(0.88851,0,0,0.88851,-93.052,-594.73)"
       y2="663.96"
       y1="674.82"
       x2="263.9"
       x1="284.61"
       id="ex" />
    <linearGradient
       xlink:href="#a"
       gradientUnits="userSpaceOnUse"
       gradientTransform="matrix(0.88851,0,0,0.88851,13.193,-594.62)"
       y2="663.96"
       y1="674.82"
       x2="263.9"
       x1="284.61"
       id="ew" />
    <linearGradient
       xlink:href="#a"
       gradientUnits="userSpaceOnUse"
       gradientTransform="matrix(0.88851,0,0,0.88851,-7.7873,-594.62)"
       y2="663.96"
       y1="674.82"
       x2="263.9"
       x1="284.61"
       id="ev" />
    <linearGradient
       xlink:href="#a"
       gradientUnits="userSpaceOnUse"
       gradientTransform="matrix(0.88851,0,0,0.88851,-114.48,-594.73)"
       y2="663.96"
       y1="674.82"
       x2="263.9"
       x1="284.61"
       id="eu" />
    <linearGradient
       xlink:href="#a"
       gradientUnits="userSpaceOnUse"
       gradientTransform="matrix(0.88851,0,0,0.88851,-135.46,-594.73)"
       y2="663.96"
       y1="674.82"
       x2="263.9"
       x1="284.61"
       id="et" />
    <linearGradient
       xlink:href="#a"
       gradientUnits="userSpaceOnUse"
       gradientTransform="matrix(0.88851,0,0,0.88851,-157,-594.73)"
       y2="663.96"
       y1="674.82"
       x2="263.9"
       x1="284.61"
       id="es" />
    <linearGradient
       xlink:href="#a"
       gradientUnits="userSpaceOnUse"
       gradientTransform="matrix(0.88851,0,0,0.88851,-177.98,-594.73)"
       y2="663.96"
       y1="674.82"
       x2="263.9"
       x1="284.61"
       id="er" />
    <linearGradient
       xlink:href="#a"
       gradientUnits="userSpaceOnUse"
       gradientTransform="matrix(0.88851,0,0,0.88851,-29.552,-615.65)"
       y2="663.96"
       y1="674.82"
       x2="263.9"
       x1="284.61"
       id="eq" />
    <linearGradient
       xlink:href="#a"
       gradientUnits="userSpaceOnUse"
       gradientTransform="matrix(0.88851,0,0,0.88851,-50.532,-615.65)"
       y2="663.96"
       y1="674.82"
       x2="263.9"
       x1="284.61"
       id="ep" />
    <linearGradient
       xlink:href="#a"
       gradientUnits="userSpaceOnUse"
       gradientTransform="matrix(0.88851,0,0,0.88851,-72.072,-615.65)"
       y2="663.96"
       y1="674.82"
       x2="263.9"
       x1="284.61"
       id="eo" />
    <linearGradient
       xlink:href="#a"
       gradientUnits="userSpaceOnUse"
       gradientTransform="matrix(0.88851,0,0,0.88851,-93.052,-615.65)"
       y2="663.96"
       y1="674.82"
       x2="263.9"
       x1="284.61"
       id="en" />
    <linearGradient
       xlink:href="#a"
       gradientUnits="userSpaceOnUse"
       gradientTransform="matrix(0.88851,0,0,0.88851,13.193,-615.54)"
       y2="663.96"
       y1="674.82"
       x2="263.9"
       x1="284.61"
       id="em" />
    <linearGradient
       xlink:href="#a"
       gradientUnits="userSpaceOnUse"
       gradientTransform="matrix(0.88851,0,0,0.88851,-7.7873,-615.54)"
       y2="663.96"
       y1="674.82"
       x2="263.9"
       x1="284.61"
       id="el" />
    <linearGradient
       xlink:href="#a"
       gradientUnits="userSpaceOnUse"
       gradientTransform="matrix(0.88851,0,0,0.88851,-114.48,-615.65)"
       y2="663.96"
       y1="674.82"
       x2="263.9"
       x1="284.61"
       id="ek" />
    <linearGradient
       xlink:href="#a"
       gradientUnits="userSpaceOnUse"
       gradientTransform="matrix(0.88851,0,0,0.88851,-135.46,-615.65)"
       y2="663.96"
       y1="674.82"
       x2="263.9"
       x1="284.61"
       id="ej" />
    <linearGradient
       xlink:href="#a"
       gradientUnits="userSpaceOnUse"
       gradientTransform="matrix(0.88851,0,0,0.88851,-157,-615.65)"
       y2="663.96"
       y1="674.82"
       x2="263.9"
       x1="284.61"
       id="ei" />
    <linearGradient
       xlink:href="#a"
       gradientUnits="userSpaceOnUse"
       gradientTransform="matrix(0.88851,0,0,0.88851,-177.98,-615.65)"
       y2="663.96"
       y1="674.82"
       x2="263.9"
       x1="284.61"
       id="eh" />
    <linearGradient
       gradientUnits="userSpaceOnUse"
       gradientTransform="matrix(0.33211,0,0,0.911,164.31,-656.21)"
       y2="737.13"
       y1="768.49"
       x2="361.38"
       x1="361.38"
       id="eg">
      <stop
         id="stop11512"
         offset="0"
         stop-color="#333" />
      <stop
         id="stop11514"
         offset="1"
         stop-color="#4d4d4d" />
    </linearGradient>
    <linearGradient
       gradientUnits="userSpaceOnUse"
       gradientTransform="matrix(0.33211,0,0,0.911,122.16,-656.21)"
       y2="737.13"
       y1="768.49"
       x2="361.38"
       x1="361.38"
       id="ef">
      <stop
         id="stop11507"
         offset="0"
         stop-color="#333" />
      <stop
         id="stop11509"
         offset="1"
         stop-color="#4d4d4d" />
    </linearGradient>
    <linearGradient
       xlink:href="#a"
       gradientUnits="userSpaceOnUse"
       gradientTransform="matrix(0.88851,0,0,0.88851,-174.39,-639.21)"
       y2="736.38"
       y1="771.79"
       x2="361.38"
       x1="361.38"
       id="ee" />
    <linearGradient
       gradientUnits="userSpaceOnUse"
       gradientTransform="matrix(2.7479,0,0,0.89941,-582.85,-643.88)"
       y2="500.39"
       y1="500.39"
       x2="274.29"
       x1="218.31"
       id="ed">
      <stop
         id="stop11501"
         offset="0"
         stop-color="#e6e6e6" />
      <stop
         id="stop11503"
         offset="1"
         stop-opacity="0"
         stop-color="#e6e6e6" />
    </linearGradient>
    <linearGradient
       gradientUnits="userSpaceOnUse"
       gradientTransform="matrix(0.88851,0,0,0.88851,-174.39,-639.21)"
       y2="501.65"
       y1="501.65"
       x2="580.86"
       x1="214.14"
       id="ec">
      <stop
         id="stop11496"
         offset="0"
         stop-color="#46474a" />
      <stop
         id="stop11498"
         offset="1"
         stop-color="#2f2f2f" />
    </linearGradient>
    <filter
       color-interpolation-filters="sRGB"
       id="da">
      <feGaussianBlur
         id="feGaussianBlur11493"
         stdDeviation="0.1196777" />
    </filter>
    <filter
       color-interpolation-filters="sRGB"
       id="cz">
      <feGaussianBlur
         id="feGaussianBlur11490"
         stdDeviation="0.013340786" />
    </filter>
    <filter
       color-interpolation-filters="sRGB"
       id="ea">
      <feGaussianBlur
         id="feGaussianBlur11487"
         stdDeviation="0.025072021" />
    </filter>
    <filter
       color-interpolation-filters="sRGB"
       id="dr">
      <feGaussianBlur
         id="feGaussianBlur11484"
         stdDeviation="0.025072021" />
    </filter>
    <filter
       color-interpolation-filters="sRGB"
       id="dt">
      <feGaussianBlur
         id="feGaussianBlur11481"
         stdDeviation="0.025072021" />
    </filter>
    <filter
       color-interpolation-filters="sRGB"
       id="dp">
      <feGaussianBlur
         id="feGaussianBlur11478"
         stdDeviation="0.025072021" />
    </filter>
    <filter
       color-interpolation-filters="sRGB"
       id="du">
      <feGaussianBlur
         id="feGaussianBlur11475"
         stdDeviation="0.025072021" />
    </filter>
    <filter
       color-interpolation-filters="sRGB"
       id="dx">
      <feGaussianBlur
         id="feGaussianBlur11472"
         stdDeviation="0.025072021" />
    </filter>
    <filter
       color-interpolation-filters="sRGB"
       id="dm">
      <feGaussianBlur
         id="feGaussianBlur11469"
         stdDeviation="0.025072021" />
    </filter>
    <filter
       color-interpolation-filters="sRGB"
       id="dq">
      <feGaussianBlur
         id="feGaussianBlur11466"
         stdDeviation="0.025072021" />
    </filter>
    <filter
       color-interpolation-filters="sRGB"
       id="do">
      <feGaussianBlur
         id="feGaussianBlur11463"
         stdDeviation="0.025072021" />
    </filter>
    <filter
       color-interpolation-filters="sRGB"
       id="dy">
      <feGaussianBlur
         id="feGaussianBlur11460"
         stdDeviation="0.025072021" />
    </filter>
    <filter
       color-interpolation-filters="sRGB"
       id="dn">
      <feGaussianBlur
         id="feGaussianBlur11457"
         stdDeviation="0.025072021" />
    </filter>
    <filter
       color-interpolation-filters="sRGB"
       id="dw">
      <feGaussianBlur
         id="feGaussianBlur11454"
         stdDeviation="0.025072021" />
    </filter>
    <filter
       color-interpolation-filters="sRGB"
       id="dz">
      <feGaussianBlur
         id="feGaussianBlur11451"
         stdDeviation="0.025072021" />
    </filter>
    <filter
       color-interpolation-filters="sRGB"
       id="ds">
      <feGaussianBlur
         id="feGaussianBlur11448"
         stdDeviation="0.025072021" />
    </filter>
    <filter
       color-interpolation-filters="sRGB"
       id="dv">
      <feGaussianBlur
         id="feGaussianBlur11445"
         stdDeviation="0.025072021" />
    </filter>
    <filter
       color-interpolation-filters="sRGB"
       id="eb">
      <feGaussianBlur
         id="feGaussianBlur11442"
         stdDeviation="0.025072021" />
    </filter>
    <filter
       color-interpolation-filters="sRGB"
       id="dl">
      <feGaussianBlur
         id="feGaussianBlur11439"
         stdDeviation="0.025072021" />
    </filter>
    <filter
       color-interpolation-filters="sRGB"
       id="cf">
      <feGaussianBlur
         id="feGaussianBlur11436"
         stdDeviation="0.025072021" />
    </filter>
    <filter
       color-interpolation-filters="sRGB"
       id="ce">
      <feGaussianBlur
         id="feGaussianBlur11433"
         stdDeviation="0.025072021" />
    </filter>
    <filter
       color-interpolation-filters="sRGB"
       id="dk">
      <feGaussianBlur
         id="feGaussianBlur11430"
         stdDeviation="0.025072021" />
    </filter>
    <filter
       color-interpolation-filters="sRGB"
       id="dj">
      <feGaussianBlur
         id="feGaussianBlur11427"
         stdDeviation="0.025072021" />
    </filter>
    <filter
       color-interpolation-filters="sRGB"
       id="di">
      <feGaussianBlur
         id="feGaussianBlur11424"
         stdDeviation="0.025072021" />
    </filter>
    <filter
       color-interpolation-filters="sRGB"
       id="dh">
      <feGaussianBlur
         id="feGaussianBlur11421"
         stdDeviation="0.025072021" />
    </filter>
    <filter
       color-interpolation-filters="sRGB"
       id="dg">
      <feGaussianBlur
         id="feGaussianBlur11418"
         stdDeviation="0.025072021" />
    </filter>
    <filter
       color-interpolation-filters="sRGB"
       id="df">
      <feGaussianBlur
         id="feGaussianBlur11415"
         stdDeviation="0.025072021" />
    </filter>
    <filter
       color-interpolation-filters="sRGB"
       id="de">
      <feGaussianBlur
         id="feGaussianBlur11412"
         stdDeviation="0.025072021" />
    </filter>
    <filter
       color-interpolation-filters="sRGB"
       id="dd">
      <feGaussianBlur
         id="feGaussianBlur11409"
         stdDeviation="0.025072021" />
    </filter>
    <filter
       color-interpolation-filters="sRGB"
       id="dc">
      <feGaussianBlur
         id="feGaussianBlur11406"
         stdDeviation="0.025072021" />
    </filter>
    <filter
       color-interpolation-filters="sRGB"
       id="db">
      <feGaussianBlur
         id="feGaussianBlur11403"
         stdDeviation="0.025072021" />
    </filter>
    <filter
       color-interpolation-filters="sRGB"
       id="cd">
      <feGaussianBlur
         id="feGaussianBlur11400"
         stdDeviation="0.025072021" />
    </filter>
    <filter
       color-interpolation-filters="sRGB"
       id="cg">
      <feGaussianBlur
         id="feGaussianBlur11397"
         stdDeviation="0.025072021" />
    </filter>
    <filter
       color-interpolation-filters="sRGB"
       id="cc">
      <feGaussianBlur
         id="feGaussianBlur11394"
         stdDeviation="0.025072021" />
    </filter>
    <filter
       color-interpolation-filters="sRGB"
       id="cb">
      <feGaussianBlur
         id="feGaussianBlur11391"
         stdDeviation="0.025072021" />
    </filter>
    <filter
       color-interpolation-filters="sRGB"
       id="ca">
      <feGaussianBlur
         id="feGaussianBlur11388"
         stdDeviation="0.025072021" />
    </filter>
    <linearGradient
       id="a">
      <stop
         id="stop11383"
         offset="0"
         stop-color="#333" />
      <stop
         id="stop11385"
         offset="1"
         stop-color="#4d4d4d" />
    </linearGradient>
  </defs>
  <sodipodi:namedview
     id="base"
     pagecolor="#ffffff"
     bordercolor="#666666"
     borderopacity="1.0"
     inkscape:pageopacity="0.0"
     inkscape:pageshadow="2"
     inkscape:zoom="0.98994949"
     inkscape:cx="452.24409"
     inkscape:cy="388.89167"
     inkscape:document-units="px"
     inkscape:current-layer="layer1"
     showgrid="false"
     showguides="true"
     inkscape:guide-bbox="true"
     inkscape:window-width="1855"
     inkscape:window-height="1056"
     inkscape:window-x="65"
     inkscape:window-y="24"
     inkscape:window-maximized="1" />
  <metadata
     id="metadata11375">
    <rdf:RDF>
      <cc:Work
         rdf:about="">
        <dc:format>image/svg+xml</dc:format>
        <dc:type
           rdf:resource="http://purl.org/dc/dcmitype/StillImage" />
        <dc:title></dc:title>
      </cc:Work>
    </rdf:RDF>
  </metadata>
  <g
     inkscape:label="Layer 1"
     inkscape:groupmode="layer"
     id="layer1"
     transform="translate(0,-602.36218)">
    <g
       id="g11560"
       transform="matrix(0.74975273,0,0,0.74975273,46.306914,978.8742)">
      <g
         id="g11562"
         transform="matrix(0.79916,0,0,0.79972,36.532,-41.852)">
        <rect
           id="rect11564"
           stroke-miterlimit="0"
           ry="39.327"
           rx="37.333"
           height="498.64001"
           width="324.75"
           y="-442.81"
           x="16.419001"
           style="fill:url(#ec);stroke:#000000;stroke-width:1.70060003;stroke-miterlimit:0" />
        <path
           id="path11566"
           d="m 62.879,-443.48 c -25.984,0 -45.836,17.554 -45.836,39.371 v 420.56 c 0,21.817 22.055,38.922 49.834,39.371 h 103.99 v -499.31 H 62.887 z"
           inkscape:connector-curvature="0"
           style="opacity:0.02000002;fill:url(#ed)" />
        <rect
           id="rect11568"
           stroke-miterlimit="0"
           ry="0"
           rx="0"
           height="321.84"
           width="240.16"
           y="-400.01999"
           x="58.706001"
           style="fill:#c9c9c9;stroke:#3c3c3c;stroke-width:1.39569998;stroke-miterlimit:0" />
        <rect
           id="rect11570"
           ry="0"
           height="15.384"
           width="239.34"
           y="-399.66"
           x="59.071999"
           style="fill:url(#cn)" />
        <path
           id="path11572"
           d="m 502.61,274 v 8.5625 h 18.281 v -1.4375 h 2.1562 v -5.5625 H 520.891 V 274 H 502.61 z m 1.6562,1.625 h 14.875 v 5.25 h -14.875 v -5.25 z"
           transform="matrix(0.88851,0,0,0.88851,-174.39,-639.21)"
           inkscape:connector-curvature="0"
           style="fill:#525050;stroke:#858585;stroke-width:0.34435999;filter:url(#da)" />
        <path
           id="path11574"
           d="m 42.906,6.8438 v 0.9375 h 0.34375 V 6.8438 H 42.906 z m -0.46875,0.1875 v 0.75 H 42.781 v -0.75 h -0.34375 z m -0.437,0.1562 V 7.78125 H 42.344 V 7.1875 H 42.00025 z M 41.56275,7.375 V 7.78125 H 41.9065 V 7.375 h -0.34375 z"
           transform="matrix(7.9707,0,0,7.9707,-75.867,-450.29)"
           inkscape:connector-curvature="0"
           style="fill:#525050;stroke:#858585;stroke-width:0.034988;filter:url(#cz)" />
        <rect
           id="rect11576"
           rx="1.1998"
           height="2.0044"
           width="211.35001"
           y="-85.184998"
           x="73.671997"
           style="opacity:0.57542001;fill:#b8b8b8;stroke:#3c3c3c;stroke-width:0.78705001" />
        <path
           id="path11578"
           stroke-miterlimit="0"
           d="m 103.78,24.632 h 85.851 c 4.0786,0 7.3621,3.5641 7.3621,7.9911 0,4.4271 -3.2835,7.9911 -7.3621,7.9911 H 103.78 c -4.0786,0 -7.3621,-3.5641 -7.3621,-7.9911 0,-4.4271 3.2835,-7.9911 7.3621,-7.9911 z"
           inkscape:connector-curvature="0"
           style="fill:url(#ee);stroke:#333333;stroke-width:1.66630006;stroke-miterlimit:0" />
        <path
           id="path11580"
           stroke-miterlimit="0"
           d="m 231.81,24.43 h 20.745 c 4.6669,0 8.424,3.6542 8.424,8.1934 0,4.5391 -3.7571,8.1934 -8.424,8.1934 H 231.81 c -4.6669,0 -8.424,-3.6542 -8.424,-8.1934 0,-4.5391 3.7571,-8.1934 8.424,-8.1934 z"
           inkscape:connector-curvature="0"
           style="fill:url(#ef);stroke:#333333;stroke-width:1.0316;stroke-miterlimit:0" />
        <path
           id="path11582"
           stroke-miterlimit="0"
           d="m 273.96,24.429 h 20.745 c 4.6669,0 8.424,3.6542 8.424,8.1934 0,4.5391 -3.7571,8.1934 -8.424,8.1934 H 273.96 c -4.6669,0 -8.424,-3.6542 -8.424,-8.1934 0,-4.5391 3.7571,-8.1934 8.424,-8.1934 z"
           inkscape:connector-curvature="0"
           style="fill:url(#eg);stroke:#333333;stroke-width:1.0316;stroke-miterlimit:0" />
        <path
           id="path11584"
           stroke-miterlimit="0"
           d="m 69.737,-9.6732 c 0,4.3993 -3.5663,7.9656 -7.9656,7.9656 -4.3993,0 -7.9656,-3.5663 -7.9656,-7.9656 0,-4.3993 3.5663,-7.9656 7.9656,-7.9656 4.3993,0 7.9656,3.5663 7.9656,7.9656 z"
           inkscape:connector-curvature="0"
           style="fill:url(#eh);stroke:#333333;stroke-width:1.3944;stroke-miterlimit:0" />
        <path
           id="path11586"
           stroke-miterlimit="0"
           d="m 90.718,-9.673 c 0,4.3993 -3.5663,7.9656 -7.9656,7.9656 -4.3993,0 -7.9656,-3.5663 -7.9656,-7.9656 0,-4.3993 3.5663,-7.9656 7.9656,-7.9656 4.3993,0 7.9656,3.5663 7.9656,7.9656 z"
           inkscape:connector-curvature="0"
           style="fill:url(#ei);stroke:#333333;stroke-width:1.3944;stroke-miterlimit:0" />
        <path
           id="path11588"
           stroke-miterlimit="0"
           d="m 112.26,-9.6732 c 0,4.3993 -3.5663,7.9656 -7.9656,7.9656 -4.3993,0 -7.9656,-3.5663 -7.9656,-7.9656 0,-4.3993 3.5663,-7.9656 7.9656,-7.9656 4.3993,0 7.9656,3.5663 7.9656,7.9656 z"
           inkscape:connector-curvature="0"
           style="fill:url(#ej);stroke:#333333;stroke-width:1.3944;stroke-miterlimit:0" />
        <path
           id="path11590"
           stroke-miterlimit="0"
           d="m 133.24,-9.673 c 0,4.3993 -3.5663,7.9656 -7.9656,7.9656 -4.3993,0 -7.9656,-3.5663 -7.9656,-7.9656 0,-4.3993 3.5663,-7.9656 7.9656,-7.9656 4.3993,0 7.9656,3.5663 7.9656,7.9656 z"
           inkscape:connector-curvature="0"
           style="fill:url(#ek);stroke:#333333;stroke-width:1.3944;stroke-miterlimit:0" />
        <path
           id="path11592"
           stroke-miterlimit="0"
           d="m 239.93,-9.5612 c 0,4.3993 -3.5663,7.9656 -7.9656,7.9656 -4.3993,0 -7.9656,-3.5663 -7.9656,-7.9656 0,-4.3993 3.5663,-7.9656 7.9656,-7.9656 4.3993,0 7.9656,3.5663 7.9656,7.9656 z"
           inkscape:connector-curvature="0"
           style="fill:url(#el);stroke:#333333;stroke-width:1.3944;stroke-miterlimit:0" />
        <path
           id="path11594"
           stroke-miterlimit="0"
           d="m 260.91,-9.561 c 0,4.3993 -3.5663,7.9656 -7.9656,7.9656 -4.3993,0 -7.9656,-3.5663 -7.9656,-7.9656 0,-4.3993 3.5663,-7.9656 7.9656,-7.9656 4.3993,0 7.9656,3.5663 7.9656,7.9656 z"
           inkscape:connector-curvature="0"
           style="fill:url(#em);stroke:#333333;stroke-width:1.3944;stroke-miterlimit:0" />
        <path
           id="path11596"
           stroke-miterlimit="0"
           d="m 154.67,-9.6732 c 0,4.3993 -3.5663,7.9656 -7.9656,7.9656 -4.3993,0 -7.9656,-3.5663 -7.9656,-7.9656 0,-4.3993 3.5663,-7.9656 7.9656,-7.9656 4.3993,0 7.9656,3.5663 7.9656,7.9656 z"
           inkscape:connector-curvature="0"
           style="fill:url(#en);stroke:#333333;stroke-width:1.3944;stroke-miterlimit:0" />
        <path
           id="path11598"
           stroke-miterlimit="0"
           d="m 175.65,-9.673 c 0,4.3993 -3.5663,7.9656 -7.9656,7.9656 -4.3993,0 -7.9656,-3.5663 -7.9656,-7.9656 0,-4.3993 3.5663,-7.9656 7.9656,-7.9656 4.3993,0 7.9656,3.5663 7.9656,7.9656 z"
           inkscape:connector-curvature="0"
           style="fill:url(#eo);stroke:#333333;stroke-width:1.3944;stroke-miterlimit:0" />
        <path
           id="path11600"
           stroke-miterlimit="0"
           d="m 197.19,-9.6732 c 0,4.3993 -3.5663,7.9656 -7.9656,7.9656 -4.3993,0 -7.9656,-3.5663 -7.9656,-7.9656 0,-4.3993 3.5663,-7.9656 7.9656,-7.9656 4.3993,0 7.9656,3.5663 7.9656,7.9656 z"
           inkscape:connector-curvature="0"
           style="fill:url(#ep);stroke:#333333;stroke-width:1.3944;stroke-miterlimit:0" />
        <path
           id="path11602"
           stroke-miterlimit="0"
           d="m 218.17,-9.673 c 0,4.3993 -3.5663,7.9656 -7.9656,7.9656 -4.3993,0 -7.9656,-3.5663 -7.9656,-7.9656 0,-4.3993 3.5663,-7.9656 7.9656,-7.9656 4.3993,0 7.9656,3.5663 7.9656,7.9656 z"
           inkscape:connector-curvature="0"
           style="fill:url(#eq);stroke:#333333;stroke-width:1.3944;stroke-miterlimit:0" />
        <path
           id="path11604"
           stroke-miterlimit="0"
           d="m 69.737,11.251 c 0,4.3993 -3.5663,7.9656 -7.9656,7.9656 -4.3993,0 -7.9656,-3.5663 -7.9656,-7.9656 0,-4.3993 3.5663,-7.9656 7.9656,-7.9656 4.3993,0 7.9656,3.5663 7.9656,7.9656 z"
           inkscape:connector-curvature="0"
           style="fill:url(#er);stroke:#333333;stroke-width:1.3944;stroke-miterlimit:0" />
        <path
           id="path11606"
           stroke-miterlimit="0"
           d="m 90.718,11.251 c 0,4.3993 -3.5663,7.9656 -7.9656,7.9656 -4.3993,0 -7.9656,-3.5663 -7.9656,-7.9656 0,-4.3993 3.5663,-7.9656 7.9656,-7.9656 4.3993,0 7.9656,3.5663 7.9656,7.9656 z"
           inkscape:connector-curvature="0"
           style="fill:url(#es);stroke:#333333;stroke-width:1.3944;stroke-miterlimit:0" />
        <path
           id="path11608"
           stroke-miterlimit="0"
           d="m 112.26,11.251 c 0,4.3993 -3.5663,7.9656 -7.9656,7.9656 -4.3993,0 -7.9656,-3.5663 -7.9656,-7.9656 0,-4.3993 3.5663,-7.9656 7.9656,-7.9656 4.3993,0 7.9656,3.5663 7.9656,7.9656 z"
           inkscape:connector-curvature="0"
           style="fill:url(#et);stroke:#333333;stroke-width:1.3944;stroke-miterlimit:0" />
        <path
           id="path11610"
           stroke-miterlimit="0"
           d="m 133.24,11.251 c 0,4.3993 -3.5663,7.9656 -7.9656,7.9656 -4.3993,0 -7.9656,-3.5663 -7.9656,-7.9656 0,-4.3993 3.5663,-7.9656 7.9656,-7.9656 4.3993,0 7.9656,3.5663 7.9656,7.9656 z"
           inkscape:connector-curvature="0"
           style="fill:url(#eu);stroke:#333333;stroke-width:1.3944;stroke-miterlimit:0" />
        <path
           id="path11612"
           stroke-miterlimit="0"
           d="m 239.93,11.362 c 0,4.3993 -3.5663,7.9656 -7.9656,7.9656 -4.3993,0 -7.9656,-3.5663 -7.9656,-7.9656 0,-4.3993 3.5663,-7.9656 7.9656,-7.9656 4.3993,0 7.9656,3.5663 7.9656,7.9656 z"
           inkscape:connector-curvature="0"
           style="fill:url(#ev);stroke:#333333;stroke-width:1.3944;stroke-miterlimit:0" />
        <path
           id="path11614"
           stroke-miterlimit="0"
           d="m 260.91,11.363 c 0,4.3993 -3.5663,7.9656 -7.9656,7.9656 -4.3993,0 -7.9656,-3.5663 -7.9656,-7.9656 0,-4.3993 3.5663,-7.9656 7.9656,-7.9656 4.3993,0 7.9656,3.5663 7.9656,7.9656 z"
           inkscape:connector-curvature="0"
           style="fill:url(#ew);stroke:#333333;stroke-width:1.3944;stroke-miterlimit:0" />
        <path
           id="path11616"
           stroke-miterlimit="0"
           d="m 154.67,11.251 c 0,4.3993 -3.5663,7.9656 -7.9656,7.9656 -4.3993,0 -7.9656,-3.5663 -7.9656,-7.9656 0,-4.3993 3.5663,-7.9656 7.9656,-7.9656 4.3993,0 7.9656,3.5663 7.9656,7.9656 z"
           inkscape:connector-curvature="0"
           style="fill:url(#ex);stroke:#333333;stroke-width:1.3944;stroke-miterlimit:0" />
        <path
           id="path11618"
           stroke-miterlimit="0"
           d="m 175.65,11.251 c 0,4.3993 -3.5663,7.9656 -7.9656,7.9656 -4.3993,0 -7.9656,-3.5663 -7.9656,-7.9656 0,-4.3993 3.5663,-7.9656 7.9656,-7.9656 4.3993,0 7.9656,3.5663 7.9656,7.9656 z"
           inkscape:connector-curvature="0"
           style="fill:url(#ey);stroke:#333333;stroke-width:1.3944;stroke-miterlimit:0" />
        <path
           id="path11620"
           stroke-miterlimit="0"
           d="m 197.19,11.251 c 0,4.3993 -3.5663,7.9656 -7.9656,7.9656 -4.3993,0 -7.9656,-3.5663 -7.9656,-7.9656 0,-4.3993 3.5663,-7.9656 7.9656,-7.9656 4.3993,0 7.9656,3.5663 7.9656,7.9656 z"
           inkscape:connector-curvature="0"
           style="fill:url(#ch);stroke:#333333;stroke-width:1.3944;stroke-miterlimit:0" />
        <path
           id="path11622"
           stroke-miterlimit="0"
           d="m 218.17,11.251 c 0,4.3993 -3.5663,7.9656 -7.9656,7.9656 -4.3993,0 -7.9656,-3.5663 -7.9656,-7.9656 0,-4.3993 3.5663,-7.9656 7.9656,-7.9656 4.3993,0 7.9656,3.5663 7.9656,7.9656 z"
           inkscape:connector-curvature="0"
           style="fill:url(#ci);stroke:#333333;stroke-width:1.3944;stroke-miterlimit:0" />
        <path
           id="path11624"
           stroke-miterlimit="0"
           d="m 69.849,32.791 c 0,4.3993 -3.5663,7.9656 -7.9656,7.9656 -4.3993,0 -7.9656,-3.5663 -7.9656,-7.9656 0,-4.3993 3.5663,-7.9656 7.9656,-7.9656 4.3993,0 7.9656,3.5663 7.9656,7.9656 z"
           inkscape:connector-curvature="0"
           style="fill:url(#cj);stroke:#333333;stroke-width:1.3944;stroke-miterlimit:0" />
        <path
           id="path11626"
           stroke-miterlimit="0"
           d="m 90.83,32.791 c 0,4.3993 -3.5663,7.9656 -7.9656,7.9656 -4.3993,0 -7.9656,-3.5663 -7.9656,-7.9656 0,-4.3993 3.5663,-7.9656 7.9656,-7.9656 4.3993,0 7.9656,3.5663 7.9656,7.9656 z"
           inkscape:connector-curvature="0"
           style="fill:url(#ck);stroke:#333333;stroke-width:1.3944;stroke-miterlimit:0" />
        <path
           id="path11628"
           stroke-miterlimit="0"
           d="m 218.11,32.847 c 0,4.3993 -3.5663,7.9656 -7.9656,7.9656 -4.3993,0 -7.9656,-3.5663 -7.9656,-7.9656 0,-4.3993 3.5663,-7.9656 7.9656,-7.9656 4.3993,0 7.9656,3.5663 7.9656,7.9656 z"
           inkscape:connector-curvature="0"
           style="fill:url(#cl);stroke:#333333;stroke-width:1.3944;stroke-miterlimit:0" />
        <path
           id="path11630"
           stroke-miterlimit="0"
           d="m 274.22,-17.726 c -4.4484,0 -8.0244,3.5464 -8.0244,7.9688 v 20.686 c 0,4.4224 3.576,7.9966 8.0244,7.9966 h 21.269 c 4.4484,0 8.0244,-3.5742 8.0244,-7.9966 v -20.686 c 0,-4.4224 -3.576,-7.9688 -8.0244,-7.9688 H 274.22 z m -0.74965,6.5805 h 22.768 v 23.684 h -22.768 v -23.684 z"
           inkscape:connector-curvature="0"
           style="fill:url(#cm);stroke:#303030;stroke-width:1.45539999;stroke-miterlimit:0" />
        <path
           id="path11632"
           stroke-miterlimit="0"
           d="m 69.737,-31.214 c 0,4.3993 -3.5663,7.9656 -7.9656,7.9656 -4.3993,0 -7.9656,-3.5663 -7.9656,-7.9656 0,-4.3993 3.5663,-7.9656 7.9656,-7.9656 4.3993,0 7.9656,3.5663 7.9656,7.9656 z"
           inkscape:connector-curvature="0"
           style="fill:url(#co);stroke:#333333;stroke-width:1.3944;stroke-miterlimit:0" />
        <path
           id="path11634"
           stroke-miterlimit="0"
           d="m 90.718,-31.214 c 0,4.3993 -3.5663,7.9656 -7.9656,7.9656 -4.3993,0 -7.9656,-3.5663 -7.9656,-7.9656 0,-4.3993 3.5663,-7.9656 7.9656,-7.9656 4.3993,0 7.9656,3.5663 7.9656,7.9656 z"
           inkscape:connector-curvature="0"
           style="fill:url(#cp);stroke:#333333;stroke-width:1.3944;stroke-miterlimit:0" />
        <path
           id="path11636"
           stroke-miterlimit="0"
           d="m 112.26,-31.214 c 0,4.3993 -3.5663,7.9656 -7.9656,7.9656 -4.3993,0 -7.9656,-3.5663 -7.9656,-7.9656 0,-4.3993 3.5663,-7.9656 7.9656,-7.9656 4.3993,0 7.9656,3.5663 7.9656,7.9656 z"
           inkscape:connector-curvature="0"
           style="fill:url(#cq);stroke:#333333;stroke-width:1.3944;stroke-miterlimit:0" />
        <path
           id="path11638"
           stroke-miterlimit="0"
           d="m 133.24,-31.214 c 0,4.3993 -3.5663,7.9656 -7.9656,7.9656 -4.3993,0 -7.9656,-3.5663 -7.9656,-7.9656 0,-4.3993 3.5663,-7.9656 7.9656,-7.9656 4.3993,0 7.9656,3.5663 7.9656,7.9656 z"
           inkscape:connector-curvature="0"
           style="fill:url(#cr);stroke:#333333;stroke-width:1.3944;stroke-miterlimit:0" />
        <path
           id="path11640"
           stroke-miterlimit="0"
           d="m 239.93,-31.102 c 0,4.3993 -3.5663,7.9656 -7.9656,7.9656 -4.3993,0 -7.9656,-3.5663 -7.9656,-7.9656 0,-4.3993 3.5663,-7.9656 7.9656,-7.9656 4.3993,0 7.9656,3.5663 7.9656,7.9656 z"
           inkscape:connector-curvature="0"
           style="fill:url(#cs);stroke:#333333;stroke-width:1.3944;stroke-miterlimit:0" />
        <path
           id="path11642"
           stroke-miterlimit="0"
           d="m 260.91,-31.102 c 0,4.3993 -3.5663,7.9656 -7.9656,7.9656 -4.3993,0 -7.9656,-3.5663 -7.9656,-7.9656 0,-4.3993 3.5663,-7.9656 7.9656,-7.9656 4.3993,0 7.9656,3.5663 7.9656,7.9656 z"
           inkscape:connector-curvature="0"
           style="fill:url(#ct);stroke:#333333;stroke-width:1.3944;stroke-miterlimit:0" />
        <path
           id="path11644"
           stroke-miterlimit="0"
           d="m 154.67,-31.214 c 0,4.3993 -3.5663,7.9656 -7.9656,7.9656 -4.3993,0 -7.9656,-3.5663 -7.9656,-7.9656 0,-4.3993 3.5663,-7.9656 7.9656,-7.9656 4.3993,0 7.9656,3.5663 7.9656,7.9656 z"
           inkscape:connector-curvature="0"
           style="fill:url(#cu);stroke:#333333;stroke-width:1.3944;stroke-miterlimit:0" />
        <path
           id="path11646"
           stroke-miterlimit="0"
           d="m 175.65,-31.214 c 0,4.3993 -3.5663,7.9656 -7.9656,7.9656 -4.3993,0 -7.9656,-3.5663 -7.9656,-7.9656 0,-4.3993 3.5663,-7.9656 7.9656,-7.9656 4.3993,0 7.9656,3.5663 7.9656,7.9656 z"
           inkscape:connector-curvature="0"
           style="fill:url(#cv);stroke:#333333;stroke-width:1.3944;stroke-miterlimit:0" />
        <path
           id="path11648"
           stroke-miterlimit="0"
           d="m 197.19,-31.214 c 0,4.3993 -3.5663,7.9656 -7.9656,7.9656 -4.3993,0 -7.9656,-3.5663 -7.9656,-7.9656 0,-4.3993 3.5663,-7.9656 7.9656,-7.9656 4.3993,0 7.9656,3.5663 7.9656,7.9656 z"
           inkscape:connector-curvature="0"
           style="fill:url(#cw);stroke:#333333;stroke-width:1.3944;stroke-miterlimit:0" />
        <path
           id="path11650"
           stroke-miterlimit="0"
           d="m 218.17,-31.214 c 0,4.3993 -3.5663,7.9656 -7.9656,7.9656 -4.3993,0 -7.9656,-3.5663 -7.9656,-7.9656 0,-4.3993 3.5663,-7.9656 7.9656,-7.9656 4.3993,0 7.9656,3.5663 7.9656,7.9656 z"
           inkscape:connector-curvature="0"
           style="fill:url(#cx);stroke:#333333;stroke-width:1.3944;stroke-miterlimit:0" />
        <path
           id="path11652"
           stroke-miterlimit="0"
           d="m 274.04,-39.679 h 20.745 c 4.6669,0 8.424,3.6542 8.424,8.1934 0,4.5391 -3.7571,8.1934 -8.424,8.1934 H 274.04 c -4.6669,0 -8.424,-3.6542 -8.424,-8.1934 0,-4.5391 3.7571,-8.1934 8.424,-8.1934 z"
           inkscape:connector-curvature="0"
           style="fill:url(#cy);stroke:#333333;stroke-width:1.0316;stroke-miterlimit:0" />
        <path
           id="path11654"
           d="m 286.96,0.31492 c 0,0.9858 -0.81692,1.785 -1.8246,1.785 -1.00768,0 -1.8246,-0.79915 -1.8246,-1.785 0,-0.9858 0.81692,-1.785 1.8246,-1.785 0.98651,0 1.7944,0.76707 1.8238,1.7317"
           inkscape:connector-curvature="0"
           style="opacity:0.35;fill:#908f8b;stroke:#747474;stroke-width:0.13944" />
        <path
           id="path11656"
           d="m 507.91,681.93 h 1.4356 l 0.99609,2.3408 1.002,-2.3408 h 1.4326 v 4.374 h -1.0664 v -3.1992 l -1.0078,2.3584 h -0.71485 l -1.0078,-2.3584 v 3.1992 h -1.0693 v -4.374"
           transform="matrix(0.88851,0,0,0.88851,-174.39,-639.21)"
           inkscape:connector-curvature="0"
           style="opacity:0.35;fill:#908f8b;stroke:#747474;stroke-width:0.15693;filter:url(#ca)" />
        <path
           id="path11658"
           d="m 517.12,684.65 v 0.29882 h -2.4522 c 0.0254,0.2461 0.11426,0.43067 0.2666,0.55371 0.15235,0.12305 0.36524,0.18458 0.63868,0.18458 0.2207,0 0.44628,-0.0322 0.67675,-0.0967 0.23242,-0.0664 0.4707,-0.16602 0.71485,-0.29883 v 0.80859 c -0.24805,0.0937 -0.4961,0.16406 -0.74414,0.21094 -0.24805,0.0488 -0.4961,0.0732 -0.74414,0.0732 -0.59376,0 -1.0557,-0.15039 -1.3858,-0.45117 -0.32812,-0.30273 -0.49218,-0.72656 -0.49218,-1.2715 0,-0.53515 0.16113,-0.95605 0.4834,-1.2627 0.32421,-0.30664 0.76952,-0.45996 1.3359,-0.45996 0.51562,0 0.92773,0.15527 1.2363,0.46582 0.31054,0.31055 0.46582,0.72559 0.46582,1.2451 m -1.0781,-0.34864 c -10e-6,-0.19921 -0.0586,-0.35937 -0.17579,-0.48047 -0.11523,-0.12304 -0.2666,-0.18456 -0.4541,-0.18457 -0.20312,10e-6 -0.36816,0.0576 -0.49511,0.17286 -0.12696,0.11328 -0.20606,0.27734 -0.23731,0.49218 h 1.3623"
           transform="matrix(0.88851,0,0,0.88851,-174.39,-639.21)"
           inkscape:connector-curvature="0"
           style="opacity:0.35;fill:#908f8b;stroke:#747474;stroke-width:0.15693;filter:url(#ca)" />
        <path
           id="path11660"
           d="m 521.21,684.31 v 1.998 h -1.0547 v -1.5293 c -10e-6,-0.2832 -0.007,-0.47851 -0.0205,-0.58593 -0.0117,-0.10742 -0.0332,-0.18653 -0.0645,-0.23731 -0.041,-0.0684 -0.0967,-0.12109 -0.167,-0.1582 -0.0703,-0.0391 -0.15039,-0.0586 -0.24023,-0.0586 -0.21875,10e-6 -0.39063,0.085 -0.51563,0.25489 -0.125,0.16797 -0.1875,0.40137 -0.1875,0.70019 v 1.6143 h -1.0488 v -3.2812 h 1.0488 v 0.48047 c 0.15821,-0.1914 0.32617,-0.33203 0.50391,-0.42188 0.17773,-0.0918 0.37402,-0.13769 0.58887,-0.13769 0.3789,0 0.66601,0.11621 0.86133,0.34863 0.19726,0.23243 0.29589,0.57032 0.29589,1.0137"
           transform="matrix(0.88851,0,0,0.88851,-174.39,-639.21)"
           inkscape:connector-curvature="0"
           style="opacity:0.35;fill:#908f8b;stroke:#747474;stroke-width:0.15693;filter:url(#ca)" />
        <path
           id="path11662"
           d="m 522.15,685.03 v -2.0039 h 1.0547 v 0.32812 c 0,0.17774 -9.8e-4,0.40137 -0.003,0.6709 -0.002,0.26758 -0.003,0.44629 -0.003,0.53614 0,0.26367 0.007,0.4541 0.0205,0.57129 0.0137,0.11523 0.0371,0.19921 0.0703,0.25195 0.043,0.0684 0.0986,0.12109 0.16699,0.1582 0.0703,0.0371 0.15039,0.0557 0.24024,0.0557 0.21875,0 0.39062,-0.084 0.51562,-0.25196 0.125,-0.16797 0.1875,-0.40136 0.1875,-0.70019 v -1.6201 h 1.0488 v 3.2812 h -1.0488 v -0.47461 c -0.1582,0.19141 -0.32617,0.33301 -0.5039,0.42481 -0.17579,0.0898 -0.37012,0.13476 -0.58301,0.13476 -0.37891,0 -0.66797,-0.11621 -0.86719,-0.34863 -0.19726,-0.23242 -0.2959,-0.57031 -0.2959,-1.0137"
           transform="matrix(0.88851,0,0,0.88851,-174.39,-639.21)"
           inkscape:connector-curvature="0"
           style="opacity:0.35;fill:#908f8b;stroke:#747474;stroke-width:0.15693;filter:url(#ca)" />
        <path
           id="path11664"
           d="m 510.93,755.73 c 0.17773,0 0.3125,-0.0391 0.4043,-0.11719 0.0918,-0.0781 0.13769,-0.19335 0.13769,-0.3457 0,-0.15039 -0.0459,-0.26465 -0.13769,-0.34277 -0.0918,-0.0801 -0.22657,-0.12012 -0.4043,-0.12012 h -0.62402 V 755.73 H 510.93 m 0.0381,1.9131 c 0.22656,0 0.39648,-0.0478 0.50976,-0.14356 0.11523,-0.0957 0.17285,-0.24023 0.17285,-0.43359 0,-0.18945 -0.0566,-0.33106 -0.16992,-0.42481 -0.11328,-0.0957 -0.28418,-0.14355 -0.51269,-0.14355 h -0.66211 v 1.1455 h 0.66211 m 1.0488,-1.5732 c 0.24219,0.0703 0.42969,0.2002 0.5625,0.38965 0.13281,0.18946 0.19922,0.42188 0.19922,0.69727 0,0.42187 -0.14258,0.73633 -0.42773,0.94336 -0.28516,0.20703 -0.71875,0.31054 -1.3008,0.31054 h -1.8721 v -4.374 h 1.6934 c 0.60741,10e-6 1.0469,0.0918 1.3184,0.27539 0.27343,0.1836 0.41015,0.47754 0.41015,0.88184 0,0.21289 -0.0498,0.39453 -0.14941,0.54492 -0.0996,0.14844 -0.24415,0.25879 -0.4336,0.33105"
           transform="matrix(0.88851,0,0,0.88851,-174.39,-639.21)"
           inkscape:connector-curvature="0"
           style="opacity:0.35;fill:#908f8b;stroke:#747474;stroke-width:0.15693;filter:url(#cb)" />
        <path
           id="path11666"
           d="m 515.17,756.94 c -0.21875,0 -0.38379,0.0371 -0.49512,0.11133 -0.10938,0.0742 -0.16406,0.18359 -0.16406,0.32812 0,0.13282 0.0439,0.23731 0.13183,0.31348 0.0899,0.0742 0.21387,0.11133 0.37207,0.11133 0.19727,0 0.36328,-0.0703 0.49805,-0.21094 0.13476,-0.14258 0.20215,-0.32031 0.20215,-0.5332 V 756.94 H 515.17 m 1.6025,-0.39551 v 1.8721 h -1.0576 v -0.48632 c -0.14063,0.19922 -0.29883,0.34472 -0.47461,0.43652 -0.17578,0.0898 -0.38965,0.13477 -0.6416,0.13477 -0.33985,0 -0.61621,-0.0986 -0.8291,-0.2959 -0.21094,-0.19922 -0.31641,-0.45703 -0.31641,-0.77344 0,-0.38477 0.13184,-0.66699 0.39551,-0.84668 0.26562,-0.17969 0.68164,-0.26953 1.248,-0.26953 h 0.61817 v -0.082 c 0,-0.16602 -0.0654,-0.28711 -0.19629,-0.36328 -0.13086,-0.0781 -0.33496,-0.11719 -0.6123,-0.11719 -0.22462,0 -0.4336,0.0225 -0.62696,0.0674 -0.19336,0.0449 -0.37305,0.11231 -0.53906,0.20215 v -0.79981 c 0.22461,-0.0547 0.45019,-0.0957 0.67676,-0.12304 0.22656,-0.0293 0.45312,-0.0439 0.67968,-0.0439 0.5918,10e-6 1.0186,0.11719 1.2803,0.35157 0.26367,0.23242 0.3955,0.61133 0.39551,1.1367"
           transform="matrix(0.88851,0,0,0.88851,-174.39,-639.21)"
           inkscape:connector-curvature="0"
           style="opacity:0.35;fill:#908f8b;stroke:#747474;stroke-width:0.15693;filter:url(#cb)" />
        <path
           id="path11668"
           d="m 520.41,755.23 v 0.85547 c -0.14258,-0.0977 -0.28614,-0.16992 -0.43067,-0.21679 -0.14258,-0.0469 -0.29101,-0.0703 -0.44531,-0.0703 -0.29297,1e-5 -0.52148,0.0859 -0.68554,0.25782 -0.16212,0.16992 -0.24317,0.4082 -0.24317,0.71484 0,0.30664 0.0811,0.5459 0.24317,0.71777 0.16406,0.16992 0.39257,0.25489 0.68554,0.25489 0.16406,0 0.31934,-0.0244 0.46582,-0.0733 0.14844,-0.0488 0.28516,-0.12109 0.41016,-0.21679 v 0.85839 c -0.16407,0.0606 -0.33106,0.10547 -0.50098,0.13477 -0.16797,0.0312 -0.33691,0.0469 -0.50683,0.0469 -0.5918,0 -1.0547,-0.15137 -1.3887,-0.45411 -0.33398,-0.30468 -0.50097,-0.72753 -0.50097,-1.2686 0,-0.54101 0.16699,-0.96289 0.50097,-1.2656 0.33399,-0.30468 0.79688,-0.45702 1.3887,-0.45703 0.17187,1e-5 0.34081,0.0156 0.50683,0.0469 0.16797,0.0293 0.33496,0.0742 0.50098,0.13476"
           transform="matrix(0.88851,0,0,0.88851,-174.39,-639.21)"
           inkscape:connector-curvature="0"
           style="opacity:0.35;fill:#908f8b;stroke:#747474;stroke-width:0.15693;filter:url(#cb)" />
        <path
           id="path11670"
           d="m 521.32,753.85 h 1.0488 v 2.4814 l 1.207,-1.2041 h 1.2188 l -1.6025,1.5059 1.7285,1.7754 h -1.2715 l -1.2803,-1.3682 v 1.3682 H 521.32 V 753.85"
           transform="matrix(0.88851,0,0,0.88851,-174.39,-639.21)"
           inkscape:connector-curvature="0"
           style="opacity:0.35;fill:#908f8b;stroke:#747474;stroke-width:0.15693;filter:url(#cb)" />
        <path
           id="path11672"
           d="m 459.63,754.04 h 1.1279 v 1.667 h 1.6641 v -1.667 h 1.1279 v 4.374 h -1.1279 v -1.8545 h -1.6641 v 1.8545 H 459.63 v -4.374"
           transform="matrix(0.88851,0,0,0.88851,-174.39,-639.21)"
           inkscape:connector-curvature="0"
           style="opacity:0.35;fill:#908f8b;stroke:#747474;stroke-width:0.15693;filter:url(#cc)" />
        <path
           id="path11674"
           d="m 466.17,755.8 c -0.23243,1e-5 -0.41016,0.084 -0.53321,0.25196 -0.12109,0.16601 -0.18164,0.40625 -0.18164,0.7207 0,0.31445 0.0605,0.55566 0.18164,0.72363 0.12305,0.16602 0.30078,0.24903 0.53321,0.24903 0.22851,0 0.40332,-0.083 0.52441,-0.24903 0.12109,-0.16797 0.18164,-0.40918 0.18164,-0.72363 0,-0.31445 -0.0606,-0.55469 -0.18164,-0.7207 -0.12109,-0.16797 -0.2959,-0.25195 -0.52441,-0.25196 m 0,-0.75 c 0.56445,1e-5 1.0049,0.15235 1.3213,0.45703 0.31835,0.30469 0.47753,0.72657 0.47754,1.2656 -10e-6,0.53906 -0.15919,0.96094 -0.47754,1.2656 -0.31641,0.30469 -0.75684,0.45704 -1.3213,0.45704 -0.56641,0 -1.0098,-0.15235 -1.3301,-0.45704 -0.31836,-0.30468 -0.47754,-0.72656 -0.47754,-1.2656 0,-0.53906 0.15918,-0.96094 0.47754,-1.2656 0.32031,-0.30468 0.76367,-0.45702 1.3301,-0.45703"
           transform="matrix(0.88851,0,0,0.88851,-174.39,-639.21)"
           inkscape:connector-curvature="0"
           style="opacity:0.35;fill:#908f8b;stroke:#747474;stroke-width:0.15693;filter:url(#cc)" />
        <path
           id="path11676"
           d="m 471.78,755.68 c 0.13281,-0.20313 0.29003,-0.35742 0.47168,-0.46289 0.18359,-0.10742 0.38476,-0.16113 0.60351,-0.16114 0.37695,10e-6 0.66406,0.11622 0.86133,0.34864 0.19726,0.23242 0.2959,0.57031 0.2959,1.0137 v 1.998 h -1.0547 v -1.7109 c 0.002,-0.0254 0.003,-0.0518 0.003,-0.0791 0.002,-0.0274 0.003,-0.0664 0.003,-0.11719 0,-0.23242 -0.0342,-0.40039 -0.10254,-0.50391 -0.0684,-0.10546 -0.17871,-0.1582 -0.33105,-0.1582 -0.19922,0 -0.35352,0.082 -0.46289,0.24609 -0.10743,0.16407 -0.16309,0.40137 -0.16699,0.71192 v 1.6113 h -1.0547 v -1.7109 c 0,-0.36328 -0.0312,-0.59668 -0.0937,-0.7002 -0.0625,-0.10546 -0.17383,-0.1582 -0.33399,-0.1582 -0.20117,0 -0.35644,0.083 -0.46582,0.24902 -0.10937,0.16407 -0.16406,0.39942 -0.16406,0.70606 v 1.6142 h -1.0547 v -3.2812 h 1.0547 v 0.48047 c 0.12891,-0.18554 0.27637,-0.32519 0.44238,-0.41894 0.16797,-0.0937 0.35254,-0.14062 0.55372,-0.14063 0.22656,10e-6 0.42675,0.0547 0.60058,0.16407 0.17383,0.10937 0.30566,0.26269 0.39551,0.45996"
           transform="matrix(0.88851,0,0,0.88851,-174.39,-639.21)"
           inkscape:connector-curvature="0"
           style="opacity:0.35;fill:#908f8b;stroke:#747474;stroke-width:0.15693;filter:url(#cc)" />
        <path
           id="path11678"
           d="m 478.27,756.76 v 0.29883 h -2.4522 c 0.0254,0.24609 0.11425,0.43066 0.2666,0.55371 0.15234,0.12305 0.36523,0.18457 0.63867,0.18457 0.2207,0 0.44629,-0.0322 0.67676,-0.0967 0.23242,-0.0664 0.4707,-0.16601 0.71484,-0.29883 v 0.8086 c -0.24805,0.0937 -0.49609,0.16406 -0.74414,0.21093 -0.24805,0.0488 -0.49609,0.0733 -0.74414,0.0733 -0.59375,0 -1.0557,-0.1504 -1.3857,-0.45118 -0.32813,-0.30273 -0.49219,-0.72656 -0.49219,-1.2715 0,-0.53516 0.16113,-0.95605 0.4834,-1.2627 0.32422,-0.30663 0.76953,-0.45995 1.3359,-0.45996 0.51562,10e-6 0.92773,0.15528 1.2363,0.46582 0.31054,0.31055 0.46581,0.72559 0.46582,1.2451 m -1.0781,-0.34863 c 0,-0.19922 -0.0586,-0.35938 -0.17578,-0.48047 -0.11524,-0.12305 -0.2666,-0.18457 -0.4541,-0.18457 -0.20313,0 -0.36817,0.0576 -0.49512,0.17285 -0.12695,0.11328 -0.20605,0.27735 -0.2373,0.49219 h 1.3623"
           transform="matrix(0.88851,0,0,0.88851,-174.39,-639.21)"
           inkscape:connector-curvature="0"
           style="opacity:0.35;fill:#908f8b;stroke:#747474;stroke-width:0.15693;filter:url(#cc)" />
        <path
           id="path11680"
           d="m 431.5,757.62 h -1.7637 l -0.27832,0.79687 h -1.1338 l 1.6201,-4.374 h 1.3447 l 1.6201,4.374 h -1.1338 L 431.49989,757.62 m -1.4824,-0.81152 h 1.1982 l -0.59766,-1.7402 -0.60058,1.7402"
           transform="matrix(0.88851,0,0,0.88851,-174.39,-639.21)"
           inkscape:connector-curvature="0"
           style="opacity:0.35;fill:#908f8b;stroke:#747474;stroke-width:0.15693;filter:url(#cg)" />
        <path
           id="path11682"
           d="m 434.91,756.94 c -0.21875,0 -0.38379,0.0371 -0.49511,0.11133 -0.10938,0.0742 -0.16407,0.18359 -0.16407,0.32812 0,0.13282 0.0439,0.23731 0.13184,0.31348 0.0898,0.0742 0.21387,0.11133 0.37207,0.11133 0.19726,0 0.36328,-0.0703 0.49805,-0.21094 0.13476,-0.14258 0.20214,-0.32031 0.20215,-0.5332 V 756.94 H 434.91 m 1.6025,-0.39551 v 1.8721 h -1.0576 v -0.48632 c -0.14063,0.19921 -0.29883,0.34472 -0.47461,0.43652 -0.17579,0.0898 -0.38965,0.13476 -0.6416,0.13476 -0.33985,0 -0.61622,-0.0986 -0.82911,-0.29589 -0.21093,-0.19922 -0.3164,-0.45703 -0.3164,-0.77344 0,-0.38477 0.13183,-0.66699 0.39551,-0.84668 0.26562,-0.17969 0.68163,-0.26953 1.248,-0.26953 h 0.61817 v -0.082 c -10e-6,-0.16602 -0.0654,-0.28711 -0.19629,-0.36328 -0.13086,-0.0781 -0.33497,-0.11719 -0.61231,-0.11719 -0.22461,0 -0.43359,0.0225 -0.62695,0.0674 -0.19336,0.0449 -0.37305,0.11231 -0.53906,0.20215 v -0.79981 c 0.22461,-0.0547 0.45019,-0.0957 0.67675,-0.12304 0.22657,-0.0293 0.45313,-0.0439 0.67969,-0.0439 0.5918,10e-6 1.0186,0.11719 1.2803,0.35156 0.26366,0.23243 0.3955,0.61134 0.3955,1.1367"
           transform="matrix(0.88851,0,0,0.88851,-174.39,-639.21)"
           inkscape:connector-curvature="0"
           style="opacity:0.35;fill:#908f8b;stroke:#747474;stroke-width:0.15693;filter:url(#cg)" />
        <path
           id="path11684"
           d="m 287.61,758 h -1.7637 l -0.27833,0.79688 h -1.1338 l 1.6201,-4.374 h 1.3447 l 1.6201,4.374 h -1.1338 L 287.60988,758 m -1.4824,-0.81152 h 1.1982 l -0.59766,-1.7402 -0.60058,1.7402"
           transform="matrix(0.88851,0,0,0.88851,-174.39,-639.21)"
           inkscape:connector-curvature="0"
           style="opacity:0.35;fill:#908f8b;stroke:#747474;stroke-width:0.15693;filter:url(#cd)" />
        <path
           id="path11686"
           d="m 289.55,754.23 h 1.0488 v 4.5586 H 289.55 V 754.23"
           transform="matrix(0.88851,0,0,0.88851,-174.39,-639.21)"
           inkscape:connector-curvature="0"
           style="opacity:0.35;fill:#908f8b;stroke:#747474;stroke-width:0.15693;filter:url(#cd)" />
        <path
           id="path11688"
           d="m 292.76,754.58 v 0.93164 h 1.081 v 0.75 h -1.081 v 1.3916 c 0,0.15235 0.0303,0.25586 0.0908,0.31055 0.0605,0.0527 0.18066,0.0791 0.36035,0.0791 h 0.53906 v 0.75 h -0.89941 c -0.41407,0 -0.70801,-0.0859 -0.88184,-0.25781 -0.17187,-0.17383 -0.25781,-0.46778 -0.25781,-0.88184 v -1.3916 h -0.52148 v -0.75 h 0.52148 V 754.58 h 1.0488"
           transform="matrix(0.88851,0,0,0.88851,-174.39,-639.21)"
           inkscape:connector-curvature="0"
           style="opacity:0.35;fill:#908f8b;stroke:#747474;stroke-width:0.15693;filter:url(#cd)" />
        <path
           id="path11690"
           d="m 266.15,686.42 h -0.0879 c -0.7207,0 -1.2812,-0.19922 -1.6816,-0.59765 -0.40039,-0.39844 -0.60058,-0.95313 -0.60058,-1.6641 0,-0.70898 0.19922,-1.2646 0.59765,-1.667 0.40039,-0.40234 0.95117,-0.60351 1.6524,-0.60351 0.70898,0 1.2607,0.19922 1.6553,0.59765 0.39648,0.39844 0.59472,0.95606 0.59473,1.6728 -10e-6,0.49219 -0.10548,0.91602 -0.31641,1.2715 -0.20899,0.35547 -0.51075,0.62304 -0.90527,0.80273 l 0.88183,0.98438 h -1.0752 l -0.71485,-0.79688 m -0.12011,-3.7148 c -0.34375,0 -0.61036,0.12696 -0.79981,0.38086 -0.18945,0.25391 -0.28418,0.61133 -0.28418,1.0723 0,0.46876 0.0928,0.82813 0.27832,1.0781 0.18555,0.24805 0.4541,0.37207 0.80567,0.37207 0.3457,0 0.61328,-0.12695 0.80273,-0.38086 0.18945,-0.25391 0.28418,-0.61035 0.28418,-1.0693 0,-0.46093 -0.0947,-0.81835 -0.28418,-1.0723 -0.18945,-0.2539 -0.45703,-0.38086 -0.80273,-0.38086"
           transform="matrix(0.88851,0,0,0.88851,-174.39,-639.21)"
           inkscape:connector-curvature="0"
           style="opacity:0.35;fill:#908f8b;stroke:#747474;stroke-width:0.15693;filter:url(#db)" />
        <path
           id="path11692"
           d="m 286.19,682.47 h 1.0811 l 0.75585,3.1787 0.75,-3.1787 h 1.0869 l 0.75,3.1787 0.75586,-3.1787 h 1.0723 l -1.0312,4.374 h -1.3008 l -0.79394,-3.3252 -0.78516,3.3252 h -1.3008 l -1.04,-4.374"
           transform="matrix(0.88851,0,0,0.88851,-174.39,-639.21)"
           inkscape:connector-curvature="0"
           style="opacity:0.35;fill:#908f8b;stroke:#747474;stroke-width:0.15693;filter:url(#dc)" />
        <path
           id="path11694"
           d="m 312.1,682.35 h 3.044 v 0.85254 h -1.916 v 0.81445 h 1.8018 v 0.85254 h -1.8018 v 1.002 h 1.9805 v 0.85254 h -3.1084 v -4.374"
           transform="matrix(0.88851,0,0,0.88851,-174.39,-639.21)"
           inkscape:connector-curvature="0"
           style="opacity:0.35;fill:#908f8b;stroke:#747474;stroke-width:0.15693;filter:url(#dd)" />
        <path
           id="path11696"
           d="m 337.31,684.23 c 0.23632,0 0.40527,-0.0439 0.50683,-0.13184 0.10352,-0.0879 0.15528,-0.23242 0.15528,-0.43359 0,-0.19922 -0.0518,-0.3418 -0.15528,-0.42774 -0.10156,-0.0859 -0.27051,-0.1289 -0.50683,-0.12891 h -0.47461 v 1.1221 H 337.31 m -0.47461,0.77929 v 1.6553 h -1.1279 v -4.374 h 1.7227 c 0.57617,10e-6 0.99804,0.0967 1.2656,0.29004 0.26953,0.19336 0.40429,0.49903 0.4043,0.91699 -1e-5,0.28907 -0.0703,0.52637 -0.21094,0.71192 -0.13868,0.18555 -0.34864,0.32227 -0.62988,0.41015 0.15429,0.0352 0.29199,0.11524 0.41308,0.24024 0.12305,0.12305 0.24707,0.31055 0.37207,0.5625 l 0.61231,1.2422 h -1.2012 l -0.53321,-1.0869 c -0.10742,-0.21875 -0.2168,-0.36816 -0.32812,-0.44824 -0.10938,-0.0801 -0.25586,-0.12012 -0.43945,-0.12012 h -0.31934"
           transform="matrix(0.88851,0,0,0.88851,-174.39,-639.21)"
           inkscape:connector-curvature="0"
           style="opacity:0.35;fill:#908f8b;stroke:#747474;stroke-width:0.15693;filter:url(#de)" />
        <path
           id="path11698"
           d="m 359.58,682.48 h 4.0312 v 0.85253 h -1.4502 v 3.5215 h -1.1279 v -3.5215 H 359.58 V 682.48"
           transform="matrix(0.88851,0,0,0.88851,-174.39,-639.21)"
           inkscape:connector-curvature="0"
           style="opacity:0.35;fill:#908f8b;stroke:#747474;stroke-width:0.15693;filter:url(#df)" />
        <path
           id="path11700"
           d="m 382.83,682.54 h 1.2334 l 0.99609,1.5586 0.99609,-1.5586 h 1.2363 l -1.667,2.5312 v 1.8428 h -1.1279 v -1.8428 l -1.667,-2.5312"
           transform="matrix(0.88851,0,0,0.88851,-174.39,-639.21)"
           inkscape:connector-curvature="0"
           style="opacity:0.35;fill:#908f8b;stroke:#747474;stroke-width:0.15693;filter:url(#dg)" />
        <path
           id="path11702"
           d="m 407.55,682.42 h 1.1279 v 2.6221 c 0,0.36133 0.0586,0.62012 0.17579,0.77637 0.11913,0.1543 0.31249,0.23145 0.58007,0.23145 0.26953,0 0.46289,-0.0771 0.58008,-0.23145 0.11914,-0.15625 0.17871,-0.41504 0.17871,-0.77637 V 682.42 h 1.1279 v 2.6221 c 0,0.61915 -0.15528,1.0801 -0.46582,1.3828 -0.31055,0.30273 -0.78418,0.4541 -1.4209,0.4541 -0.63476,0 -1.1074,-0.15137 -1.418,-0.4541 -0.31054,-0.30274 -0.46582,-0.76367 -0.46582,-1.3828 V 682.42"
           transform="matrix(0.88851,0,0,0.88851,-174.39,-639.21)"
           inkscape:connector-curvature="0"
           style="opacity:0.35;fill:#908f8b;stroke:#747474;stroke-width:0.15693;filter:url(#dh)" />
        <path
           id="path11704"
           d="m 432.62,682.42 h 1.1279 v 4.374 H 432.62 v -4.374"
           transform="matrix(0.88851,0,0,0.88851,-174.39,-639.21)"
           inkscape:connector-curvature="0"
           style="opacity:0.35;fill:#908f8b;stroke:#747474;stroke-width:0.15693;filter:url(#di)" />
        <path
           id="path11706"
           d="m 457.52,683.28 c -0.34375,0 -0.61035,0.12695 -0.7998,0.38086 -0.18946,0.25391 -0.28418,0.61133 -0.28418,1.0723 0,0.45899 0.0947,0.81543 0.28418,1.0693 0.18945,0.2539 0.45605,0.38086 0.7998,0.38086 0.3457,0 0.61328,-0.12696 0.80274,-0.38086 0.18945,-0.25391 0.28417,-0.61035 0.28418,-1.0693 -10e-6,-0.46093 -0.0947,-0.81835 -0.28418,-1.0723 C 458.13328,683.40695 457.8657,683.28 457.52,683.28 m 0,-0.81739 c 0.70313,10e-6 1.2539,0.20118 1.6524,0.60352 0.39843,0.40235 0.59765,0.95801 0.59765,1.667 0,0.70703 -0.19922,1.2617 -0.59765,1.6641 -0.39844,0.40235 -0.94922,0.60352 -1.6524,0.60352 -0.70117,0 -1.252,-0.20117 -1.6523,-0.60352 -0.39844,-0.40234 -0.59766,-0.95703 -0.59766,-1.6641 0,-0.70898 0.19922,-1.2646 0.59766,-1.667 0.40039,-0.40234 0.95117,-0.60351 1.6523,-0.60352"
           transform="matrix(0.88851,0,0,0.88851,-174.39,-639.21)"
           inkscape:connector-curvature="0"
           style="opacity:0.35;fill:#908f8b;stroke:#747474;stroke-width:0.15693;filter:url(#dj)" />
        <path
           id="path11708"
           d="m 479.59,682.73 h 1.8721 c 0.55664,0 0.9834,0.12403 1.2803,0.37207 0.29882,0.2461 0.44824,0.59766 0.44824,1.0547 0,0.45898 -0.14942,0.8125 -0.44824,1.0605 -0.29688,0.2461 -0.72364,0.36914 -1.2803,0.36914 h -0.74414 v 1.5176 h -1.1279 v -4.374 m 1.1279,0.81738 v 1.2217 h 0.62403 c 0.21874,0 0.38769,-0.0527 0.50683,-0.1582 0.11914,-0.10742 0.17871,-0.25879 0.17871,-0.4541 0,-0.19531 -0.0596,-0.3457 -0.17871,-0.45118 -0.11914,-0.10546 -0.28809,-0.1582 -0.50683,-0.1582 h -0.62403"
           transform="matrix(0.88851,0,0,0.88851,-174.39,-639.21)"
           inkscape:connector-curvature="0"
           style="opacity:0.35;fill:#908f8b;stroke:#747474;stroke-width:0.15693;filter:url(#dk)" />
        <path
           id="path11710"
           d="m 476.95,707.82 v 2.6689 h 0.40429 c 0.46094,0 0.8125,-0.11426 1.0547,-0.34277 0.24414,-0.22852 0.36621,-0.56055 0.36621,-0.9961 0,-0.43359 -0.1211,-0.76366 -0.36328,-0.99023 -0.24219,-0.22656 -0.59473,-0.33984 -1.0576,-0.33984 h -0.40429 m -1.1279,-0.85254 h 1.1894 c 0.66406,0 1.1582,0.0478 1.4824,0.14355 0.32617,0.0938 0.60547,0.25391 0.83789,0.48047 0.20508,0.19727 0.35742,0.42481 0.45703,0.68262 0.0996,0.25781 0.14941,0.54981 0.14942,0.87597 -10e-6,0.33008 -0.0498,0.62501 -0.14942,0.88477 -0.0996,0.25781 -0.25195,0.48535 -0.45703,0.68262 -0.23438,0.22656 -0.51563,0.38769 -0.84375,0.4834 -0.32813,0.0937 -0.82031,0.14062 -1.4766,0.14062 h -1.1894 v -4.374"
           transform="matrix(0.88851,0,0,0.88851,-174.39,-639.21)"
           inkscape:connector-curvature="0"
           style="opacity:0.35;fill:#908f8b;stroke:#747474;stroke-width:0.15693;filter:url(#ce)" />
        <path
           id="path11712"
           d="m 484.03,709.69 v 0.29882 h -2.4522 c 0.0254,0.2461 0.11426,0.43067 0.2666,0.55372 0.15235,0.12304 0.36524,0.18457 0.63868,0.18457 0.2207,0 0.44628,-0.0322 0.67675,-0.0967 0.23242,-0.0664 0.4707,-0.16602 0.71485,-0.29883 v 0.80859 c -0.24805,0.0937 -0.4961,0.16406 -0.74414,0.21094 -0.24805,0.0488 -0.4961,0.0732 -0.74414,0.0732 -0.59376,0 -1.0557,-0.15039 -1.3858,-0.45117 -0.32812,-0.30273 -0.49218,-0.72656 -0.49218,-1.2715 0,-0.53516 0.16113,-0.95606 0.48339,-1.2627 0.32422,-0.30664 0.76953,-0.45996 1.3359,-0.45996 0.51562,0 0.92773,0.15528 1.2363,0.46582 0.31054,0.31055 0.46582,0.72559 0.46582,1.2451 m -1.0781,-0.34864 c -10e-6,-0.19921 -0.0586,-0.35937 -0.17579,-0.48047 -0.11523,-0.12304 -0.2666,-0.18456 -0.4541,-0.18457 -0.20312,1e-5 -0.36816,0.0576 -0.49511,0.17286 -0.12696,0.11328 -0.20606,0.27734 -0.23731,0.49218 h 1.3623"
           transform="matrix(0.88851,0,0,0.88851,-174.39,-639.21)"
           inkscape:connector-curvature="0"
           style="opacity:0.35;fill:#908f8b;stroke:#747474;stroke-width:0.15693;filter:url(#ce)" />
        <path
           id="path11714"
           d="m 484.82,706.78 h 1.0488 v 4.5586 H 484.82 V 706.78"
           transform="matrix(0.88851,0,0,0.88851,-174.39,-639.21)"
           inkscape:connector-curvature="0"
           style="opacity:0.35;fill:#908f8b;stroke:#747474;stroke-width:0.15693;filter:url(#ce)" />
        <path
           id="path11716"
           d="m 455.07,730.01 v 0.92578 c -0.24024,-0.10741 -0.47461,-0.18847 -0.70312,-0.24316 -0.22852,-0.0547 -0.44434,-0.082 -0.64747,-0.082 -0.26953,0 -0.46875,0.0371 -0.59765,0.11133 -0.12891,0.0742 -0.19336,0.18945 -0.19336,0.3457 0,0.11719 0.043,0.20899 0.1289,0.27539 0.0879,0.0645 0.2461,0.12012 0.47461,0.16699 l 0.48047,0.0967 c 0.48633,0.0977 0.83203,0.2461 1.0371,0.44532 0.20508,0.19922 0.30762,0.48242 0.30762,0.8496 0,0.48243 -0.14356,0.8418 -0.43066,1.0781 -0.28516,0.23437 -0.72169,0.35156 -1.3096,0.35156 -0.27735,0 -0.55567,-0.0264 -0.83497,-0.0791 -0.27929,-0.0527 -0.55859,-0.13086 -0.83789,-0.23437 v -0.95215 c 0.2793,0.14844 0.54883,0.26074 0.8086,0.33691 0.26171,0.0742 0.51367,0.11133 0.75586,0.11133 0.24609,0 0.43456,-0.041 0.56543,-0.12305 0.13085,-0.082 0.19628,-0.19922 0.19629,-0.35156 -10e-6,-0.13672 -0.0449,-0.24219 -0.13477,-0.31641 -0.0879,-0.0742 -0.26465,-0.14062 -0.53027,-0.19921 l -0.43653,-0.0967 c -0.4375,-0.0937 -0.75781,-0.24317 -0.96093,-0.44825 -0.20118,-0.20507 -0.30176,-0.48144 -0.30176,-0.8291 0,-0.43554 0.14062,-0.7705 0.42187,-1.0049 0.28125,-0.23437 0.68555,-0.35156 1.2129,-0.35156 0.24024,0 0.48731,0.0186 0.74121,0.0557 0.25391,0.0352 0.5166,0.0889 0.78809,0.16113"
           transform="matrix(0.88851,0,0,0.88851,-174.39,-639.21)"
           inkscape:connector-curvature="0"
           style="opacity:0.35;fill:#908f8b;stroke:#747474;stroke-width:0.15693;filter:url(#cf)" />
        <path
           id="path11718"
           d="m 455.88,730.96 h 1.0488 l 0.88184,2.2266 0.75,-2.2266 h 1.0488 l -1.3799,3.5918 c -0.13867,0.36523 -0.30078,0.62011 -0.48632,0.76465 -0.1836,0.14648 -0.42676,0.21972 -0.7295,0.21972 h -0.60644 v -0.68847 h 0.32812 c 0.17774,0 0.30664,-0.0283 0.38672,-0.085 0.082,-0.0566 0.14551,-0.15821 0.19043,-0.30469 l 0.0293,-0.0908 -1.4619,-3.4072"
           transform="matrix(0.88851,0,0,0.88851,-174.39,-639.21)"
           inkscape:connector-curvature="0"
           style="opacity:0.35;fill:#908f8b;stroke:#747474;stroke-width:0.15693;filter:url(#cf)" />
        <path
           id="path11720"
           d="m 462.78,731.06 v 0.79688 c -0.22461,-0.0937 -0.44141,-0.16406 -0.65039,-0.21094 -0.20899,-0.0469 -0.40626,-0.0703 -0.5918,-0.0703 -0.19922,0 -0.34766,0.0254 -0.44531,0.0762 -0.0957,0.0488 -0.14356,0.125 -0.14356,0.22851 0,0.084 0.0361,0.14844 0.1084,0.19336 0.0742,0.0449 0.20605,0.0781 0.39551,0.0996 l 0.18457,0.0264 c 0.53711,0.0684 0.89843,0.18066 1.084,0.33691 0.18555,0.15625 0.27832,0.40137 0.27832,0.73535 0,0.34961 -0.12891,0.61231 -0.38671,0.78809 -0.25782,0.17578 -0.64258,0.26367 -1.1543,0.26367 -0.2168,0 -0.44141,-0.0176 -0.67383,-0.0527 -0.23047,-0.0332 -0.46777,-0.084 -0.71191,-0.15235 v -0.79687 c 0.20898,0.10156 0.42285,0.17773 0.6416,0.22851 0.2207,0.0508 0.44433,0.0762 0.6709,0.0762 0.20507,0 0.35937,-0.0283 0.46289,-0.085 0.10351,-0.0566 0.15527,-0.14063 0.15527,-0.25196 0,-0.0937 -0.0361,-0.16308 -0.1084,-0.20801 -0.0703,-0.0469 -0.21191,-0.083 -0.4248,-0.10839 l -0.18457,-0.0234 c -0.4668,-0.0586 -0.79395,-0.16699 -0.98145,-0.3252 -0.1875,-0.1582 -0.28125,-0.39843 -0.28125,-0.7207 0,-0.34765 0.11914,-0.60547 0.35742,-0.77344 0.23828,-0.16796 0.60352,-0.25195 1.0957,-0.25195 0.19335,0 0.39648,0.0146 0.60937,0.0439 0.21289,0.0293 0.44433,0.0752 0.69434,0.13769"
           transform="matrix(0.88851,0,0,0.88851,-174.39,-639.21)"
           inkscape:connector-curvature="0"
           style="opacity:0.35;fill:#908f8b;stroke:#747474;stroke-width:0.15693;filter:url(#cf)" />
        <path
           id="path11722"
           d="m 266.46,709.92 h -1.7637 l -0.27832,0.79688 h -1.1338 l 1.6201,-4.374 h 1.3447 l 1.6201,4.374 h -1.1338 L 266.45989,709.92 m -1.4824,-0.81152 h 1.1982 l -0.59766,-1.7402 -0.60058,1.7402"
           transform="matrix(0.88851,0,0,0.88851,-174.39,-639.21)"
           inkscape:connector-curvature="0"
           style="opacity:0.35;fill:#908f8b;stroke:#747474;stroke-width:0.15693;filter:url(#dl)" />
        <path
           id="path11724"
           d="m 291.05,706.92 v 0.92578 c -0.24023,-0.10741 -0.47461,-0.18847 -0.70312,-0.24316 -0.22852,-0.0547 -0.44434,-0.082 -0.64746,-0.082 -0.26954,0 -0.46875,0.0371 -0.59766,0.11133 -0.12891,0.0742 -0.19336,0.18945 -0.19336,0.3457 0,0.11719 0.043,0.20899 0.12891,0.27539 0.0879,0.0645 0.24609,0.12012 0.47461,0.16699 l 0.48047,0.0967 c 0.48632,0.0977 0.83202,0.2461 1.0371,0.44532 0.20507,0.19922 0.30761,0.48242 0.30761,0.8496 0,0.48243 -0.14356,0.8418 -0.43066,1.0781 -0.28516,0.23437 -0.72168,0.35156 -1.3096,0.35156 -0.27735,0 -0.55567,-0.0264 -0.83496,-0.0791 -0.2793,-0.0527 -0.5586,-0.13086 -0.83789,-0.23437 v -0.95215 c 0.27929,0.14844 0.54882,0.26074 0.80859,0.33691 0.26172,0.0742 0.51367,0.11133 0.75586,0.11133 0.24609,0 0.43457,-0.041 0.56543,-0.12305 0.13086,-0.082 0.19629,-0.19922 0.19629,-0.35156 0,-0.13672 -0.0449,-0.24219 -0.13477,-0.31641 -0.0879,-0.0742 -0.26465,-0.14062 -0.53027,-0.19922 l -0.43652,-0.0967 c -0.4375,-0.0937 -0.75782,-0.24317 -0.96094,-0.44825 -0.20117,-0.20507 -0.30176,-0.48144 -0.30176,-0.8291 0,-0.43554 0.14063,-0.7705 0.42188,-1.0049 0.28125,-0.23437 0.68554,-0.35156 1.2129,-0.35156 0.24023,0 0.4873,0.0186 0.74121,0.0557 0.2539,0.0352 0.5166,0.0889 0.78808,0.16113"
           transform="matrix(0.88851,0,0,0.88851,-174.39,-639.21)"
           inkscape:connector-curvature="0"
           style="opacity:0.35;fill:#908f8b;stroke:#747474;stroke-width:0.15693;filter:url(#eb)" />
        <path
           id="path11726"
           d="m 313.11,707.23 v 2.669 h 0.4043 c 0.46094,0 0.8125,-0.11426 1.0547,-0.34278 0.24414,-0.22851 0.36621,-0.56054 0.36621,-0.99609 0,-0.43359 -0.1211,-0.76367 -0.36328,-0.99023 -0.24219,-0.22656 -0.59473,-0.33984 -1.0576,-0.33985 h -0.4043 m -1.1279,-0.85254 h 1.1895 c 0.66406,10e-6 1.1582,0.0479 1.4824,0.14356 0.32617,0.0937 0.60546,0.25391 0.83789,0.48047 0.20507,0.19727 0.35742,0.4248 0.45703,0.68261 0.0996,0.25782 0.14941,0.54981 0.14941,0.87598 0,0.33008 -0.0498,0.625 -0.14941,0.88477 -0.0996,0.25781 -0.25196,0.48535 -0.45703,0.68261 -0.23438,0.22657 -0.51563,0.3877 -0.84375,0.4834 -0.32813,0.0937 -0.82032,0.14063 -1.4766,0.14063 h -1.1895 v -4.374"
           transform="matrix(0.88851,0,0,0.88851,-174.39,-639.21)"
           inkscape:connector-curvature="0"
           style="opacity:0.35;fill:#908f8b;stroke:#747474;stroke-width:0.15693;filter:url(#dv)" />
        <path
           id="path11728"
           d="m 335.95,706.43 h 3.0439 v 0.85254 h -1.916 v 0.81445 h 1.8018 v 0.85254 h -1.8018 v 1.8545 H 335.95 v -4.374"
           transform="matrix(0.88851,0,0,0.88851,-174.39,-639.21)"
           inkscape:connector-curvature="0"
           style="opacity:0.35;fill:#908f8b;stroke:#747474;stroke-width:0.15693;filter:url(#ds)" />
        <path
           id="path11730"
           d="m 363.39,710.59 c -0.28126,0.13672 -0.57325,0.23926 -0.87598,0.30762 -0.30274,0.0684 -0.61524,0.10254 -0.9375,0.10254 -0.72852,0 -1.3057,-0.20313 -1.7314,-0.60938 -0.42578,-0.4082 -0.63867,-0.96093 -0.63867,-1.6582 0,-0.70508 0.2168,-1.2598 0.65039,-1.6641 0.4336,-0.4043 1.0273,-0.60644 1.7812,-0.60645 0.29102,10e-6 0.56934,0.0274 0.83496,0.082 0.26758,0.0547 0.51953,0.13575 0.75586,0.24317 v 0.90527 c -0.24414,-0.13867 -0.48731,-0.24218 -0.72949,-0.31055 -0.24024,-0.0684 -0.48145,-0.10253 -0.72363,-0.10254 -0.44922,1e-5 -0.7959,0.12598 -1.04,0.37793 -0.24219,0.25001 -0.36328,0.60841 -0.36328,1.0752 0,0.46289 0.11718,0.82031 0.35156,1.0723 0.23437,0.25195 0.56738,0.37793 0.99902,0.37792 0.11719,10e-6 0.22559,-0.007 0.3252,-0.0205 0.10156,-0.0156 0.19238,-0.0391 0.27246,-0.0703 v -0.8496 h -0.68848 v -0.75586 h 1.7578 v 2.1035"
           transform="matrix(0.88851,0,0,0.88851,-174.39,-639.21)"
           inkscape:connector-curvature="0"
           style="opacity:0.35;fill:#908f8b;stroke:#747474;stroke-width:0.15693;filter:url(#dz)" />
        <path
           id="path11732"
           d="m 383.14,706.47 h 1.1279 v 1.667 h 1.6641 v -1.667 h 1.1279 v 4.374 h -1.1279 v -1.8545 h -1.6641 v 1.8545 H 383.14 v -4.374"
           transform="matrix(0.88851,0,0,0.88851,-174.39,-639.21)"
           inkscape:connector-curvature="0"
           style="opacity:0.35;fill:#908f8b;stroke:#747474;stroke-width:0.15693;filter:url(#dw)" />
        <path
           id="path11734"
           d="m 408.99,706.25 h 1.1279 v 3.9492 c -1e-5,0.54492 -0.14844,0.95215 -0.44532,1.2217 -0.29492,0.26953 -0.74219,0.4043 -1.3418,0.4043 h -0.22852 v -0.85254 h 0.17578 c 0.23438,0 0.41113,-0.0654 0.53027,-0.19629 0.1211,-0.13086 0.18165,-0.32324 0.18165,-0.57715 v -3.9492"
           transform="matrix(0.88851,0,0,0.88851,-174.39,-639.21)"
           inkscape:connector-curvature="0"
           style="opacity:0.35;fill:#908f8b;stroke:#747474;stroke-width:0.15693;filter:url(#dn)" />
        <path
           id="path11736"
           d="m 431.13,706.69 h 1.1279 v 1.5967 l 1.626,-1.5967 h 1.3096 l -2.1064,2.0713 2.3232,2.3027 h -1.4121 l -1.7402,-1.7227 v 1.7227 h -1.1279 v -4.374"
           transform="matrix(0.88851,0,0,0.88851,-174.39,-639.21)"
           inkscape:connector-curvature="0"
           style="opacity:0.35;fill:#908f8b;stroke:#747474;stroke-width:0.15693;filter:url(#dy)" />
        <path
           id="path11738"
           d="m 455.97,706.6 h 1.1279 v 3.5215 h 1.9805 v 0.85254 H 455.97 v -4.374"
           transform="matrix(0.88851,0,0,0.88851,-174.39,-639.21)"
           inkscape:connector-curvature="0"
           style="opacity:0.35;fill:#908f8b;stroke:#747474;stroke-width:0.15693;filter:url(#do)" />
        <path
           id="path11740"
           d="m 263.75,730.15 h 3.6768 v 0.68262 l -2.3467,2.8389 h 2.4141 v 0.85254 h -3.8115 v -0.68261 l 2.3467,-2.8389 h -2.2793 v -0.85254"
           transform="matrix(0.88851,0,0,0.88851,-174.39,-639.21)"
           inkscape:connector-curvature="0"
           style="opacity:0.35;fill:#908f8b;stroke:#747474;stroke-width:0.15693;filter:url(#dq)" />
        <path
           id="path11742"
           d="m 290.14,732.16 1.5176,2.2324 h -1.1748 l -1.0225,-1.4941 -1.0137,1.4941 h -1.1807 l 1.5176,-2.2324 -1.459,-2.1416 h 1.1777 l 0.95801,1.4092 0.95508,-1.4092 h 1.1836 l -1.459,2.1416"
           transform="matrix(0.88851,0,0,0.88851,-174.39,-639.21)"
           inkscape:connector-curvature="0"
           style="opacity:0.35;fill:#908f8b;stroke:#747474;stroke-width:0.15693;filter:url(#dm)" />
        <path
           id="path11744"
           d="m 315.35,733.9 c -0.20704,0.10743 -0.42286,0.18848 -0.64746,0.24317 -0.22462,0.0547 -0.45899,0.082 -0.70313,0.082 -0.72852,0 -1.3057,-0.20313 -1.7314,-0.60938 -0.42578,-0.4082 -0.63868,-0.96093 -0.63867,-1.6582 -1e-5,-0.69921 0.21289,-1.252 0.63867,-1.6582 0.42578,-0.4082 1.0029,-0.6123 1.7314,-0.61231 0.24414,10e-6 0.47851,0.0273 0.70313,0.082 0.2246,0.0547 0.44042,0.13575 0.64746,0.24317 v 0.90527 c -0.20899,-0.14257 -0.41504,-0.24706 -0.61817,-0.31347 -0.20312,-0.0664 -0.41699,-0.0996 -0.6416,-0.0996 -0.40234,0 -0.71875,0.12891 -0.94922,0.38672 -0.23047,0.25781 -0.3457,0.61328 -0.3457,1.0664 0,0.45117 0.11523,0.80567 0.3457,1.0635 0.23047,0.25781 0.54688,0.38672 0.94922,0.38672 0.22461,0 0.43848,-0.0332 0.6416,-0.0996 0.20313,-0.0664 0.40918,-0.1709 0.61817,-0.31348 v 0.90527"
           transform="matrix(0.88851,0,0,0.88851,-174.39,-639.21)"
           inkscape:connector-curvature="0"
           style="opacity:0.35;fill:#908f8b;stroke:#747474;stroke-width:0.15693;filter:url(#dx)" />
        <path
           id="path11746"
           d="m 335.1,730.08 h 1.1338 l 1.1602,3.2285 1.1572,-3.2285 h 1.1338 l -1.6201,4.374 h -1.3447 l -1.6201,-4.374"
           transform="matrix(0.88851,0,0,0.88851,-174.39,-639.21)"
           inkscape:connector-curvature="0"
           style="opacity:0.35;fill:#908f8b;stroke:#747474;stroke-width:0.15693;filter:url(#du)" />
        <path
           id="path11748"
           d="m 361.74,731.71 c 0.17773,0 0.3125,-0.0391 0.4043,-0.11719 0.0918,-0.0781 0.13769,-0.19336 0.13769,-0.3457 0,-0.15039 -0.0459,-0.26465 -0.13769,-0.34278 -0.0918,-0.0801 -0.22657,-0.12011 -0.4043,-0.12011 h -0.62402 V 731.71 H 361.74 m 0.0381,1.9131 c 0.22656,0 0.39648,-0.0479 0.50976,-0.14355 0.11523,-0.0957 0.17285,-0.24023 0.17285,-0.43359 0,-0.18946 -0.0566,-0.33106 -0.16992,-0.42481 -0.11328,-0.0957 -0.28418,-0.14355 -0.51269,-0.14355 h -0.66211 v 1.1455 h 0.66211 m 1.0488,-1.5732 c 0.24218,0.0703 0.42968,0.2002 0.5625,0.38965 0.1328,0.18945 0.19921,0.42188 0.19921,0.69727 0,0.42187 -0.14258,0.73632 -0.42773,0.94336 -0.28516,0.20703 -0.71875,0.31054 -1.3008,0.31054 h -1.8721 v -4.374 h 1.6934 c 0.60742,0 1.0469,0.0918 1.3184,0.27539 0.27343,0.1836 0.41015,0.47754 0.41015,0.88184 0,0.21289 -0.0498,0.39453 -0.14941,0.54492 -0.0996,0.14844 -0.24415,0.25879 -0.43359,0.33105"
           transform="matrix(0.88851,0,0,0.88851,-174.39,-639.21)"
           inkscape:connector-curvature="0"
           style="opacity:0.35;fill:#908f8b;stroke:#747474;stroke-width:0.15693;filter:url(#dp)" />
        <path
           id="path11750"
           d="m 383.1,730.15 h 1.2598 l 1.5908,3 v -3 h 1.0693 v 4.374 h -1.2598 l -1.5908,-3 v 3 H 383.1 v -4.374"
           transform="matrix(0.88851,0,0,0.88851,-174.39,-639.21)"
           inkscape:connector-curvature="0"
           style="opacity:0.35;fill:#908f8b;stroke:#747474;stroke-width:0.15693;filter:url(#dt)" />
        <path
           id="path11752"
           d="m 406.77,730.02 h 1.4356 l 0.99609,2.3408 1.002,-2.3408 h 1.4326 v 4.374 h -1.0664 v -3.1992 l -1.0078,2.3584 h -0.71485 l -1.0078,-2.3584 v 3.1992 h -1.0693 v -4.374"
           transform="matrix(0.88851,0,0,0.88851,-174.39,-639.21)"
           inkscape:connector-curvature="0"
           style="opacity:0.35;fill:#908f8b;stroke:#747474;stroke-width:0.15693;filter:url(#dr)" />
        <path
           id="path11754"
           d="m 432.34,732.88 h 1.0547 v 1.1338 H 432.34 V 732.88"
           transform="matrix(0.88851,0,0,0.88851,-174.39,-639.21)"
           inkscape:connector-curvature="0"
           style="opacity:0.35;fill:#908f8b;stroke:#747474;stroke-width:0.15693;filter:url(#ea)" />
        <path
           id="path11756"
           d="m 254.37,7.7087 h 1.0334 v 6.2142 H 254.37 l -3.3214,0.01433 0.0167,0.83541 -1.6508,-1.3481 1.6584,-1.4984 -0.0133,0.88128 3.3096,-0.01433 v -5.0844 z"
           inkscape:connector-curvature="0"
           style="opacity:0.35;fill:#908f8b;stroke:#747474;stroke-width:0.078251" />
        <path
           id="path11758"
           d="m 61.334,36.207 -0.01433,-5.1872 -0.83542,0.01673 1.3481,-1.6508 1.4984,1.6585 -0.88128,-0.01283 0.01433,5.1755 h -1.1297 z"
           inkscape:connector-curvature="0"
           style="opacity:0.35;fill:#908f8b;stroke:#747474;stroke-width:0.078251" />
        <path
           id="path11760"
           d="m 282.44,-13.126 2.5434,-3.002 2.5604,3.0157 -1.1222,-0.0035 -1.4327,-1.8069 -1.4212,1.7989 -1.1276,-0.0035 v 0.0014 z"
           inkscape:connector-curvature="0"
           style="opacity:0.35;fill:#908f8b;stroke:#747474;stroke-width:0.14030001" />
        <path
           id="path11762"
           d="m 298.68,-1.7255 3.002,2.5434 -3.0157,2.5604 0.003,-1.1222 1.8069,-1.4327 -1.7988,-1.4212 0.003,-1.1276 h -0.001 z"
           inkscape:connector-curvature="0"
           style="opacity:0.35;fill:#908f8b;stroke:#747474;stroke-width:0.14030001" />
        <path
           id="path11764"
           d="m 282.44,14.356 2.5434,3.002 2.5604,-3.0157 -1.1222,0.0035 -1.4327,1.8069 -1.4212,-1.7989 -1.1276,0.0035 v -0.0014 z"
           inkscape:connector-curvature="0"
           style="opacity:0.35;fill:#908f8b;stroke:#747474;stroke-width:0.14030001" />
        <path
           id="path11766"
           d="m 271.11,-1.7255 -3.002,2.5434 3.0157,2.5604 -0.003,-1.1222 -1.8069,-1.4327 1.7988,-1.4212 -0.003,-1.1276 h 10e-4 z"
           inkscape:connector-curvature="0"
           style="opacity:0.35;fill:#908f8b;stroke:#747474;stroke-width:0.14030001" />
        <text
           id="text11768"
           xml:space="preserve"
           style="font-size:10.67099953px;font-weight:bold;line-height:100%;fill:#9f9f95;stroke:#303030;stroke-width:0.41830999;font-family:FreeSans"
           font-weight="bold"
           font-size="10.671px"
           y="-418.0195"
           x="148.30675"
           sodipodi:linespacing="100%"><tspan
             id="tspan11770"
             y="-418.0195"
             x="148.30675"
             style="stroke-width:0.41830999">ebook</tspan></text>
        <path
           id="path11772"
           d="m 154.91,-417.22 c 4.8944,6.2454 21.281,8.1437 28.146,1.9927 -9.3713,3.9247 -18.614,3.1671 -28.146,-1.9927 z m 30.886,0 c -1.8442,0.73341 -2.1734,0.875 -5.4798,0.99633 1.2852,0.61548 1.3583,0.76558 3.4872,0.49817 -0.90403,1.5133 -1.0118,1.9472 -0.49817,2.989 0.8667,-2.0997 1.2889,-2.4367 2.4908,-4.4835 z"
           inkscape:connector-curvature="0"
           style="fill:#9f9f95;stroke:#303030;stroke-width:0.41830999" />
        <text
           id="text11774"
           xml:space="preserve"
           style="font-size:10.67099953px;font-weight:bold;line-height:100%;fill:#9f9f95;stroke:#303030;stroke-width:0.41830999;font-family:FreeSans"
           font-weight="bold"
           font-size="10.671px"
           y="-417.99985"
           x="180.40466"
           sodipodi:linespacing="100%"><tspan
             id="tspan11776"
             y="-417.99985"
             x="180.40466"
             style="stroke-width:0.41830999"><tspan
               id="tspan11778"
               style="font-size:10.67099953px;font-weight:300;line-height:100%;stroke:#303030;stroke-width:0.41830999;font-family:'Arista 2.0 Light'"
               font-weight="300"
               font-size="10.671px">reader</tspan></tspan></text>
      </g>
    </g>
    <text
       xml:space="preserve"
       style="font-size:40px;font-style:normal;font-weight:normal;line-height:125%;letter-spacing:0px;word-spacing:0px;fill:#000000;fill-opacity:1;stroke:none;font-family:Sans"
       x="407.09146"
       y="852.35199"
       id="text12022"
       sodipodi:linespacing="125%"><tspan
         sodipodi:role="line"
         id="tspan12024"
         x="407.09146"
         y="852.35199"
         style="font-size:48px;font-style:normal;font-variant:normal;font-weight:500;font-stretch:normal;font-family:Ubuntu;-inkscape-font-specification:Ubuntu Medium">e-Book</tspan></text>
  </g>
</svg>
