<?xml version="1.0" encoding="UTF-8" standalone="no"?>
<!-- Created with Inkscape (http://www.inkscape.org/) -->

<svg
   xmlns:dc="http://purl.org/dc/elements/1.1/"
   xmlns:cc="http://creativecommons.org/ns#"
   xmlns:rdf="http://www.w3.org/1999/02/22-rdf-syntax-ns#"
   xmlns:svg="http://www.w3.org/2000/svg"
   xmlns="http://www.w3.org/2000/svg"
   xmlns:xlink="http://www.w3.org/1999/xlink"
   xmlns:sodipodi="http://sodipodi.sourceforge.net/DTD/sodipodi-0.dtd"
   xmlns:inkscape="http://www.inkscape.org/namespaces/inkscape"
   width="500"
   height="300"
   id="svg3108"
   version="1.1"
   inkscape:version="0.48.4 r9939"
   sodipodi:docname="font-500-300.svg">
  <defs
     id="defs3110">
    <linearGradient
       inkscape:collect="always"
       xlink:href="#e"
       id="linearGradient7299"
       gradientUnits="userSpaceOnUse"
       x1="226.11"
       y1="363.44"
       x2="302.95999"
       y2="807.90997" />
    <linearGradient
       gradientUnits="userSpaceOnUse"
       y2="807.90997"
       y1="363.44"
       x2="302.95999"
       x1="226.11"
       id="e">
      <stop
         id="stop3323"
         offset="0" />
      <stop
         id="stop3325"
         offset=".055556"
         stop-color="#43200f" />
      <stop
         id="stop3327"
         offset="1"
         stop-color="#fcfaf9" />
    </linearGradient>
    <filter
       color-interpolation-filters="sRGB"
       height="1.2609"
       width="1.0265"
       y="-0.13045999"
       x="-0.013233"
       id="l">
      <feGaussianBlur
         id="feGaussianBlur3320"
         stdDeviation="2.2461906" />
    </filter>
    <radialGradient
       gradientUnits="userSpaceOnUse"
       gradientTransform="matrix(-0.87689,0.60466,-3.8951,-9.4829,2343.2,4645.1)"
       r="70.949997"
       cy="459.62"
       cx="328.88"
       id="b">
      <stop
         id="stop3372"
         offset="0"
         stop-opacity=".89381" />
      <stop
         id="stop3374"
         offset=".51632"
         stop-opacity=".9451"
         stop-color="#692800" />
      <stop
         id="stop3376"
         offset="1"
         stop-color="#fff7f1" />
    </radialGradient>
    <filter
       color-interpolation-filters="sRGB"
       height="1.7466"
       width="1.1576"
       y="-0.37331"
       x="-0.078823"
       id="m">
      <feGaussianBlur
         id="feGaussianBlur3385"
         stdDeviation="15.131436" />
    </filter>
    <radialGradient
       gradientUnits="userSpaceOnUse"
       gradientTransform="matrix(1.6163,-0.66501,0.40832,0.9924,-483.87,279.33)"
       r="211.89999"
       cy="549.59003"
       cx="374.79999"
       id="d">
      <stop
         id="stop3330"
         offset="0" />
      <stop
         id="stop3332"
         offset=".70323"
         stop-opacity=".9451"
         stop-color="#692800" />
      <stop
         id="stop3334"
         offset="1"
         stop-color="#fff7f1" />
    </radialGradient>
    <radialGradient
       gradientUnits="userSpaceOnUse"
       gradientTransform="matrix(1.6163,-0.66501,0.40832,0.9924,-486.87,281.23)"
       r="211.89999"
       cy="549.02002"
       cx="376.79999"
       id="c">
      <stop
         id="stop3337"
         offset="0" />
      <stop
         id="stop3339"
         offset="1"
         stop-opacity="0" />
    </radialGradient>
    <linearGradient
       gradientUnits="userSpaceOnUse"
       y2="752.21997"
       y1="752.21997"
       x2="617.90002"
       x1="249.81"
       id="k">
      <stop
         id="stop3342"
         offset="0" />
      <stop
         id="stop3344"
         offset=".72453"
         stop-opacity=".9451"
         stop-color="#692800" />
      <stop
         id="stop3346"
         offset="1"
         stop-color="#fff7f1" />
    </linearGradient>
    <linearGradient
       gradientUnits="userSpaceOnUse"
       y2="752.21997"
       y1="752.21997"
       x2="617.90002"
       x1="249.81"
       id="j">
      <stop
         id="stop3349"
         offset="0" />
      <stop
         id="stop3351"
         offset=".056919"
         stop-opacity=".9451"
         stop-color="#692800" />
      <stop
         id="stop3353"
         offset="1"
         stop-color="#fff7f1" />
    </linearGradient>
    <linearGradient
       xlink:href="#a"
       gradientUnits="userSpaceOnUse"
       y2="530.81"
       y1="530.81"
       x2="515.04999"
       x1="305.09"
       id="i" />
    <linearGradient
       id="a">
      <stop
         id="stop3313"
         offset="0"
         stop-opacity=".89381" />
      <stop
         id="stop3315"
         offset=".69444"
         stop-opacity=".9451"
         stop-color="#692800" />
      <stop
         id="stop3317"
         offset="1"
         stop-color="#b89782" />
    </linearGradient>
    <linearGradient
       xlink:href="#a"
       gradientUnits="userSpaceOnUse"
       gradientTransform="translate(-2.8571,222.86)"
       y2="307.95999"
       y1="307.95999"
       x2="517.90997"
       x1="307.95001"
       id="h" />
    <linearGradient
       id="linearGradient3160">
      <stop
         id="stop3162"
         offset="0"
         stop-opacity=".89381" />
      <stop
         id="stop3164"
         offset=".69444"
         stop-opacity=".9451"
         stop-color="#692800" />
      <stop
         id="stop3166"
         offset="1"
         stop-color="#b89782" />
    </linearGradient>
    <linearGradient
       gradientUnits="userSpaceOnUse"
       gradientTransform="translate(-2.8571,222.86)"
       y2="357.98001"
       y1="357.98001"
       x2="518.19"
       x1="307.51999"
       id="g">
      <stop
         id="stop3358"
         offset="0" />
      <stop
         id="stop3360"
         offset=".6296"
         stop-opacity=".9451"
         stop-color="#692800" />
      <stop
         id="stop3362"
         offset="1"
         stop-color="#fff7f1" />
    </linearGradient>
    <linearGradient
       gradientUnits="userSpaceOnUse"
       gradientTransform="translate(-2.8571,222.86)"
       y2="357.98001"
       y1="357.98001"
       x2="518.19"
       x1="307.51999"
       id="f">
      <stop
         id="stop3365"
         offset="0"
         stop-opacity=".89381" />
      <stop
         id="stop3367"
         offset=".19265"
         stop-opacity=".9451"
         stop-color="#692800" />
      <stop
         id="stop3369"
         offset="1"
         stop-color="#b89782" />
    </linearGradient>
    <filter
       color-interpolation-filters="sRGB"
       id="n">
      <feGaussianBlur
         id="feGaussianBlur3382"
         stdDeviation="1.1497568" />
    </filter>
    <filter
       color-interpolation-filters="sRGB"
       height="1.4358"
       width="1.0986"
       y="-0.21788"
       x="-0.049304999"
       id="o">
      <feGaussianBlur
         id="feGaussianBlur3379"
         stdDeviation="5.5229755" />
    </filter>
    <linearGradient
       inkscape:collect="always"
       xlink:href="#e"
       id="linearGradient3340"
       gradientUnits="userSpaceOnUse"
       x1="226.11"
       y1="363.44"
       x2="302.95999"
       y2="807.90997" />
    <radialGradient
       inkscape:collect="always"
       xlink:href="#b"
       id="radialGradient3342"
       gradientUnits="userSpaceOnUse"
       gradientTransform="matrix(-0.87689,0.60466,-3.8951,-9.4829,2343.2,4645.1)"
       cx="328.88"
       cy="459.62"
       r="70.949997" />
    <radialGradient
       inkscape:collect="always"
       xlink:href="#d"
       id="radialGradient3344"
       gradientUnits="userSpaceOnUse"
       gradientTransform="matrix(1.6163,-0.66501,0.40832,0.9924,-483.87,279.33)"
       cx="374.79999"
       cy="549.59003"
       r="211.89999" />
    <radialGradient
       inkscape:collect="always"
       xlink:href="#c"
       id="radialGradient3346"
       gradientUnits="userSpaceOnUse"
       gradientTransform="matrix(1.6163,-0.66501,0.40832,0.9924,-486.87,281.23)"
       cx="376.79999"
       cy="549.02002"
       r="211.89999" />
    <linearGradient
       inkscape:collect="always"
       xlink:href="#k"
       id="linearGradient3348"
       gradientUnits="userSpaceOnUse"
       x1="249.81"
       y1="752.21997"
       x2="617.90002"
       y2="752.21997" />
    <linearGradient
       inkscape:collect="always"
       xlink:href="#j"
       id="linearGradient3350"
       gradientUnits="userSpaceOnUse"
       x1="249.81"
       y1="752.21997"
       x2="617.90002"
       y2="752.21997" />
    <linearGradient
       inkscape:collect="always"
       xlink:href="#a"
       id="linearGradient3352"
       gradientUnits="userSpaceOnUse"
       x1="305.09"
       y1="530.81"
       x2="515.04999"
       y2="530.81" />
    <linearGradient
       inkscape:collect="always"
       xlink:href="#a"
       id="linearGradient3354"
       gradientUnits="userSpaceOnUse"
       gradientTransform="translate(-2.8571,222.86)"
       x1="307.95001"
       y1="307.95999"
       x2="517.90997"
       y2="307.95999" />
    <linearGradient
       inkscape:collect="always"
       xlink:href="#g"
       id="linearGradient3356"
       gradientUnits="userSpaceOnUse"
       gradientTransform="translate(-2.8571,222.86)"
       x1="307.51999"
       y1="357.98001"
       x2="518.19"
       y2="357.98001" />
    <linearGradient
       inkscape:collect="always"
       xlink:href="#f"
       id="linearGradient3358"
       gradientUnits="userSpaceOnUse"
       gradientTransform="translate(-2.8571,222.86)"
       x1="307.51999"
       y1="357.98001"
       x2="518.19"
       y2="357.98001" />
  </defs>
  <sodipodi:namedview
     id="base"
     pagecolor="#ffffff"
     bordercolor="#666666"
     borderopacity="1.0"
     inkscape:pageopacity="0.0"
     inkscape:pageshadow="2"
     inkscape:zoom="1"
     inkscape:cx="121"
     inkscape:cy="120"
     inkscape:document-units="px"
     inkscape:current-layer="layer1"
     showgrid="false"
     inkscape:window-width="1855"
     inkscape:window-height="1056"
     inkscape:window-x="65"
     inkscape:window-y="24"
     inkscape:window-maximized="1" />
  <metadata
     id="metadata3113">
    <rdf:RDF>
      <cc:Work
         rdf:about="">
        <dc:format>image/svg+xml</dc:format>
        <dc:type
           rdf:resource="http://purl.org/dc/dcmitype/StillImage" />
        <dc:title />
      </cc:Work>
    </rdf:RDF>
  </metadata>
  <g
     inkscape:label="Layer 1"
     inkscape:groupmode="layer"
     id="layer1"
     transform="translate(0,-752.36218)">
    <g
       id="g3265"
       transform="translate(8.1705019,-1.1264396)">
      <g
         transform="matrix(0.3305178,0,0,0.3305178,37.967249,783.36586)"
         id="g3387">
        <path
           inkscape:connector-curvature="0"
           id="rect3389"
           d="m 6.1501999,3.9131 735.2100201,0 0,719.04999 -735.2100201,0 z"
           style="fill:url(#linearGradient3340)" />
        <path
           style="fill:#c8b7b7;stroke:#a2a2a2;stroke-width:3.10800004;stroke-linecap:round;stroke-linejoin:round"
           inkscape:connector-curvature="0"
           d="M 478.65,387.34 733.72,480.41 216.26,598.14 17.84,474.55 478.65,387.34 z"
           id="path3391" />
        <path
           inkscape:connector-curvature="0"
           transform="matrix(5.3429,1.2169,-23.774,2.5167,16940,-1488.1)"
           d="m 96.321,714.15 c 0.046,0.06 0.069,0.11 0.069,0.17 0,0.12 -0.087,0.28 -0.259,0.48 -0.13,0.13 -0.261,0.27 -0.391,0.41 -0.263,0.75 -0.506,1.55 -0.727,2.41 -0.264,1.02 -0.401,1.76 -0.41,2.23 0.055,0.15 0.083,0.25 0.083,0.3 0,0.13 -0.121,0.28 -0.362,0.44 -0.045,0.03 -0.089,0.05 -0.132,0.05 -0.055,0 -0.107,-0.03 -0.156,-0.09 -0.032,-0.04 -0.063,-0.07 -0.093,-0.11 -0.048,-0.03 -0.048,-0.17 0,-0.42 -0.286,-0.75 -0.688,-1.62 -1.206,-2.59 -0.446,-0.83 -0.765,-1.37 -0.957,-1.61 -0.133,0.43 -0.376,1.1 -0.727,1.99 -0.186,0.48 -0.373,0.96 -0.562,1.43 0.088,-0.03 0.225,0.13 0.41,0.5 0.02,0.04 0.03,0.06 0.03,0.09 0,0.05 -0.048,0.08 -0.142,0.09 0.062,-0.01 -0.016,-0.01 -0.234,-0.01 -0.202,0 -0.373,0.07 -0.513,0.21 0,0 -0.041,0.09 -0.122,0.28 -0.059,0.14 -0.142,0.2 -0.249,0.2 -0.042,0 -0.091,-0.01 -0.147,-0.03 -0.332,-0.13 -0.496,-0.27 -0.493,-0.4 0.007,-0.17 0.264,-0.4 0.772,-0.71 0.267,-0.48 0.607,-1.25 1.02,-2.31 0.332,-0.84 0.549,-1.44 0.65,-1.78 -0.228,-0.37 -0.461,-0.61 -0.699,-0.75 -0.091,-0.05 -0.17,-0.07 -0.239,-0.07 -0.14,0 -0.327,0.09 -0.561,0.26 -0.062,0.05 -0.122,0.07 -0.181,0.07 -0.075,0 -0.112,-0.03 -0.112,-0.1 0,-0.06 0.034,-0.12 0.102,-0.19 0.358,-0.34 0.58,-0.55 0.664,-0.61 0.183,-0.15 0.337,-0.21 0.464,-0.2 0.199,0.03 0.459,0.26 0.781,0.71 0.069,-0.17 0.088,-0.3 0.059,-0.39 -0.003,-0.02 -0.005,-0.03 -0.005,-0.04 0,-0.05 0.018,-0.07 0.054,-0.07 0.062,0 0.156,0.06 0.283,0.16 0.065,0.06 0.098,0.14 0.098,0.23 0,0.08 -0.021,0.19 -0.064,0.32 -0.036,0.09 -0.07,0.19 -0.102,0.28 0.442,0.62 0.9,1.36 1.372,2.22 0.433,0.79 0.724,1.4 0.874,1.83 0.114,-0.74 0.39,-1.96 0.83,-3.66 -0.082,-0.05 -0.184,-0.13 -0.308,-0.24 -0.055,-0.06 -0.083,-0.11 -0.083,-0.15 0,-0.05 0.056,-0.08 0.169,-0.07 0.112,0.01 0.389,-0.27 0.832,-0.83 0.101,-0.12 0.186,-0.19 0.254,-0.19 0.094,0 0.217,0.09 0.366,0.26 z m 2.574,3.24 c -0.007,0.29 -0.077,0.67 -0.21,1.15 -0.212,0.76 -0.511,1.34 -0.899,1.76 -0.205,0.22 -0.433,0.33 -0.683,0.33 -0.098,0 -0.223,-0.02 -0.376,-0.06 -0.306,-0.02 -0.555,-0.12 -0.748,-0.29 -0.208,-0.19 -0.305,-0.43 -0.292,-0.73 0.013,-0.34 0.131,-0.82 0.356,-1.44 0.247,-0.68 0.505,-1.16 0.771,-1.46 0.127,-0.14 0.232,-0.21 0.313,-0.21 0.111,0 0.29,0.11 0.537,0.34 0.068,-0.03 0.208,-0.09 0.42,-0.18 0.107,-0.04 0.189,-0.05 0.244,-0.05 0.127,0 0.269,0.11 0.425,0.35 0.101,0.15 0.148,0.31 0.142,0.49 z m -0.562,0.14 c 0.023,-0.22 0.034,-0.35 0.034,-0.41 0,-0.14 -0.042,-0.21 -0.127,-0.21 -0.032,0 -0.075,0.01 -0.127,0.02 l -0.757,0.31 c -0.087,0.04 -0.138,0.05 -0.151,0.05 -0.026,0 -0.052,-0.03 -0.078,-0.09 -0.189,0.23 -0.365,0.57 -0.527,1 -0.127,0.34 -0.215,0.65 -0.264,0.92 -0.036,0.18 -0.054,0.35 -0.054,0.5 0,0.5 0.155,0.74 0.464,0.73 0.124,0 0.257,-0.05 0.4,-0.15 0.274,-0.18 0.529,-0.55 0.767,-1.11 0.228,-0.52 0.368,-1.04 0.42,-1.56 z m 4.797,-4.63 c 0.05,0.04 0.07,0.07 0.07,0.11 0,0.06 -0.04,0.09 -0.12,0.09 -0.03,0 -0.06,-0.01 -0.1,-0.03 -0.15,-0.08 -0.26,-0.11 -0.34,-0.11 -0.2,0 -0.43,0.2 -0.67,0.59 -0.88,1.44 -1.51,3.31 -1.89,5.59 -0.01,0.07 -0.02,0.15 -0.05,0.25 0.08,-0.08 0.19,-0.2 0.33,-0.38 0.09,-0.1 0.15,-0.15 0.19,-0.15 0.08,0 0.09,0.05 0.02,0.15 -0.31,0.45 -0.52,0.91 -0.621,1.4 -0.036,0.12 -0.081,0.18 -0.137,0.18 -0.026,0 -0.06,-0.01 -0.102,-0.04 -0.166,-0.11 -0.26,-0.18 -0.283,-0.2 -0.065,-0.06 -0.098,-0.15 -0.098,-0.25 0,-0.05 0.008,-0.11 0.025,-0.19 0.377,-2.07 0.866,-3.84 1.456,-5.3 0.45,-1.1 0.85,-1.81 1.21,-2.14 0.1,-0.09 0.19,-0.13 0.29,-0.13 0.09,0.01 0.2,0.06 0.34,0.17 l 0.48,0.39 z m 0.07,2.12 c 0.05,0.04 0.07,0.09 0.07,0.13 0,0.1 -0.14,0.25 -0.42,0.44 -0.18,0.13 -0.36,0.18 -0.53,0.14 -0.1,-0.02 -0.18,-0.05 -0.26,-0.11 -0.02,-0.02 -0.04,-0.04 -0.05,-0.06 -0.01,-0.02 -0.01,-0.04 -0.01,-0.05 0.01,-0.01 0.03,-0.02 0.06,-0.01 0.3,-0.26 0.5,-0.45 0.59,-0.56 0.08,-0.09 0.13,-0.13 0.17,-0.13 0.05,0 0.18,0.07 0.38,0.21 z m -0.69,2.14 c -0.08,0.44 -0.28,1.17 -0.61,2.19 0.09,-0.08 0.22,-0.24 0.39,-0.46 0.02,-0.03 0.04,-0.04 0.07,-0.04 0.05,0 0.06,0.04 0.02,0.13 -0.02,0.04 -0.16,0.26 -0.41,0.67 -0.2,0.31 -0.34,0.59 -0.43,0.83 -0.03,0.08 -0.09,0.11 -0.16,0.11 -0.08,0 -0.19,-0.03 -0.32,-0.11 -0.09,-0.04 -0.13,-0.08 -0.13,-0.1 0,-0.02 0.02,-0.06 0.05,-0.13 0.18,-0.31 0.38,-0.82 0.59,-1.55 0.21,-0.7 0.32,-1.23 0.35,-1.57 0.01,-0.14 -0.01,-0.22 -0.05,-0.22 -0.03,0 -0.08,0.04 -0.15,0.11 l -0.31,0.28 c -0.1,0.1 -0.16,0.11 -0.16,0.02 0,-0.03 0.02,-0.06 0.05,-0.1 0.15,-0.22 0.31,-0.42 0.49,-0.61 0.05,-0.06 0.1,-0.08 0.15,-0.08 0.05,0 0.13,0.03 0.23,0.1 0.15,0.04 0.23,0.07 0.25,0.08 0.07,0.04 0.11,0.13 0.11,0.25 0,0.06 -0.01,0.13 -0.02,0.2 z m 12.46,-3.01 c 0.02,0.02 0.03,0.05 0.03,0.07 0,0.07 -0.05,0.1 -0.15,0.1 -0.02,0 -0.05,0 -0.09,-0.01 -0.04,-0.01 -0.08,-0.01 -0.1,-0.01 -0.15,0 -0.31,0.15 -0.46,0.45 -0.64,1.23 -1.05,2.76 -1.24,4.59 0.07,-0.14 0.17,-0.32 0.29,-0.56 0.04,-0.07 0.08,-0.11 0.14,-0.11 0.06,0 0.09,0.05 0.09,0.13 0,0.04 -0.01,0.08 -0.03,0.13 -0.15,0.34 -0.28,0.83 -0.4,1.46 -0.03,0.14 -0.09,0.21 -0.19,0.21 -0.11,0 -0.28,-0.08 -0.5,-0.25 -0.11,-0.08 -0.17,-0.15 -0.19,-0.2 -0.02,-0.04 -0.02,-0.14 0.01,-0.28 0.11,-0.71 0.26,-1.5 0.45,-2.39 0.21,-1.01 0.37,-1.61 0.47,-1.79 -0.34,0.41 -0.76,1 -1.26,1.78 -0.49,0.77 -0.92,1.5 -1.28,2.19 0.06,0.2 0.1,0.35 0.1,0.46 0,0.12 -0.11,0.29 -0.33,0.48 -0.11,0.11 -0.18,0.16 -0.21,0.16 -0.04,0 -0.14,-0.13 -0.29,-0.39 -0.07,-0.11 -0.11,-0.2 -0.11,-0.26 0,-0.05 0.05,-0.16 0.15,-0.34 -0.21,-0.77 -0.59,-1.72 -1.14,-2.83 -0.35,0.89 -0.71,1.69 -1.07,2.42 0.23,0.27 0.35,0.44 0.35,0.54 0,0.07 -0.08,0.11 -0.24,0.13 -0.35,0.04 -0.63,0.22 -0.86,0.53 -0.02,0.1 -0.07,0.15 -0.15,0.15 -0.11,0 -0.28,-0.1 -0.51,-0.3 -0.07,-0.06 -0.11,-0.11 -0.11,-0.15 0,-0.03 0.03,-0.08 0.09,-0.13 0.22,-0.19 0.47,-0.37 0.75,-0.55 0.6,-1 1.09,-2.06 1.48,-3.17 -0.4,-0.87 -0.9,-1.48 -1.48,-1.83 -0.1,-0.06 -0.19,-0.08 -0.28,-0.08 -0.13,0 -0.26,0.06 -0.39,0.19 -0.13,0.13 -0.26,0.27 -0.38,0.41 -0.08,0.08 -0.15,0.12 -0.22,0.12 -0.06,0 -0.09,-0.03 -0.09,-0.09 0,-0.02 0.01,-0.06 0.03,-0.1 0.44,-0.88 0.86,-1.31 1.26,-1.3 0.47,0.02 1.09,0.61 1.85,1.77 0.18,-0.42 0.28,-0.8 0.28,-1.15 0,-0.17 0.02,-0.26 0.07,-0.26 0.05,0 0.17,0.07 0.35,0.21 0.05,0.04 0.07,0.13 0.07,0.26 -0.01,0.17 -0.16,0.67 -0.45,1.48 0.57,1.12 1,2.13 1.3,3.05 1.15,-1.91 2.18,-3.4 3.1,-4.47 0.11,-0.26 0.25,-0.52 0.42,-0.77 0.07,-0.11 0.16,-0.17 0.26,-0.17 0.15,0 0.42,0.16 0.81,0.47 z m 1.71,4.94 c -0.79,1.01 -1.35,1.52 -1.67,1.52 -0.15,0 -0.34,-0.11 -0.58,-0.32 -0.24,-0.11 -0.36,-0.27 -0.36,-0.46 0,-0.03 0,-0.07 0.01,-0.11 0.05,-0.45 0.17,-0.94 0.35,-1.48 -0.12,-0.06 -0.18,-0.12 -0.18,-0.18 0,-0.04 0.04,-0.06 0.1,-0.06 0.06,0 0.11,0.01 0.16,0.04 0.29,-0.65 0.55,-1.11 0.79,-1.39 0.15,-0.18 0.28,-0.27 0.4,-0.27 0.06,0 0.19,0.05 0.41,0.14 -0.01,-0.1 0.01,-0.15 0.08,-0.17 h 0.23 c 0.14,0 0.21,0.03 0.21,0.07 0,0.01 0,0.04 -0.01,0.09 -0.01,0.04 -0.02,0.08 -0.02,0.12 0,0.12 0.01,0.27 0.01,0.44 v 0.35 c 0,0.4 -0.11,0.68 -0.33,0.84 -0.2,0.15 -0.43,0.22 -0.68,0.22 -0.13,0 -0.36,-0.04 -0.67,-0.11 -0.05,0.1 -0.11,0.3 -0.18,0.59 -0.09,0.37 -0.13,0.7 -0.13,0.99 0.01,0.17 0.06,0.25 0.16,0.25 0.04,0 0.09,-0.01 0.15,-0.03 0.38,-0.13 0.91,-0.54 1.58,-1.22 0.04,-0.04 0.09,-0.06 0.13,-0.06 0.06,0 0.09,0.03 0.09,0.09 0,0.03 -0.01,0.07 -0.05,0.11 z m -0.57,-2.16 c 0,-0.13 -0.03,-0.19 -0.08,-0.19 -0.04,0 -0.09,0.03 -0.16,0.08 -0.32,0.26 -0.6,0.71 -0.84,1.35 0.07,0.01 0.18,0.02 0.34,0.03 0.27,0.01 0.46,-0.05 0.59,-0.18 0.1,-0.1 0.16,-0.26 0.17,-0.48 -0.01,0.16 -0.02,-0.04 -0.02,-0.61 z m 5.52,-2.68 c 0.09,0.05 0.14,0.11 0.14,0.17 0,0.04 -0.04,0.06 -0.1,0.06 -0.01,0 -0.03,0 -0.06,-0.01 h -0.06 c -0.12,0 -0.27,0.13 -0.45,0.4 -0.15,0.24 -0.37,0.77 -0.65,1.57 -0.02,0.08 -0.03,0.12 -0.03,0.13 0.01,0.02 0.05,0.04 0.13,0.04 0.19,0.02 0.45,0.01 0.77,-0.02 0.11,-0.01 0.17,0.04 0.17,0.14 0,0.07 -0.05,0.12 -0.13,0.13 -0.07,0.01 -0.43,0.04 -1.08,0.09 -0.39,1.14 -0.63,2.11 -0.71,2.9 0,0.04 -0.01,0.08 -0.01,0.11 0,0.11 0.03,0.17 0.09,0.17 0.08,0 0.35,-0.21 0.79,-0.64 0.05,-0.05 0.1,-0.08 0.15,-0.08 0.05,0 0.07,0.02 0.08,0.06 0.01,0.03 0,0.08 -0.04,0.13 -0.27,0.35 -0.52,0.65 -0.78,0.89 -0.11,0.1 -0.2,0.15 -0.27,0.15 -0.07,0 -0.18,-0.05 -0.33,-0.17 -0.18,-0.05 -0.28,-0.14 -0.28,-0.29 0,-0.02 0.01,-0.05 0.01,-0.08 0.12,-0.84 0.36,-1.87 0.71,-3.1 -0.17,-0.02 -0.33,-0.05 -0.47,-0.07 -0.06,-0.01 -0.09,-0.05 -0.09,-0.12 0,-0.07 0.03,-0.12 0.1,-0.13 0.06,-0.02 0.18,-0.05 0.36,-0.11 0.11,-0.04 0.21,-0.08 0.31,-0.15 0.35,-1.07 0.62,-1.77 0.82,-2.09 0.11,-0.18 0.24,-0.27 0.37,-0.27 0.12,0 0.3,0.06 0.54,0.19 z m 2.98,2.98 c -0.3,0.83 -0.5,1.53 -0.62,2.09 0.05,-0.05 0.12,-0.12 0.2,-0.21 0.07,-0.09 0.12,-0.15 0.14,-0.17 0.05,-0.06 0.1,-0.08 0.15,-0.08 0.05,0 0.07,0.02 0.07,0.07 0,0.03 -0.01,0.06 -0.04,0.1 -0.3,0.45 -0.5,0.91 -0.61,1.37 -0.02,0.13 -0.07,0.2 -0.13,0.2 -0.05,0 -0.16,-0.05 -0.31,-0.16 -0.08,-0.06 -0.13,-0.1 -0.15,-0.14 -0.01,-0.04 -0.01,-0.11 0,-0.22 0.14,-0.83 0.31,-1.51 0.52,-2.06 -0.29,0.46 -0.67,0.97 -1.16,1.52 -0.43,0.49 -0.74,0.8 -0.92,0.93 -0.14,0.1 -0.24,0.14 -0.32,0.14 -0.05,0 -0.14,-0.04 -0.26,-0.14 -0.18,-0.1 -0.26,-0.25 -0.26,-0.43 0,-0.03 0,-0.07 0.01,-0.12 0.05,-0.48 0.27,-1.04 0.63,-1.68 0.37,-0.64 0.78,-1.18 1.26,-1.62 0.15,-0.14 0.29,-0.21 0.41,-0.21 0.11,0.01 0.34,0.16 0.66,0.46 0.03,0.03 0.05,0.06 0.05,0.09 0,0.05 -0.04,0.07 -0.1,0.07 -0.03,0 -0.05,0 -0.08,-0.01 -0.23,-0.1 -0.41,-0.09 -0.55,0.01 -0.31,0.22 -0.65,0.62 -1.02,1.19 -0.43,0.65 -0.69,1.23 -0.78,1.75 v 0.07 c 0,0.08 0.03,0.12 0.1,0.12 0.11,0 0.24,-0.08 0.39,-0.23 0.37,-0.36 0.76,-0.8 1.17,-1.34 0.43,-0.55 0.7,-0.97 0.82,-1.26 0.09,-0.21 0.15,-0.35 0.18,-0.44 0.04,-0.14 0.08,-0.22 0.13,-0.22 0.05,0 0.17,0.07 0.34,0.2 0.08,0.06 0.12,0.11 0.13,0.15 0,0.04 -0.01,0.11 -0.05,0.21 z m 4.19,1.51 c -0.19,0.3 -0.45,0.73 -0.76,1.29 -0.06,0.15 -0.12,0.3 -0.17,0.44 -0.05,0.1 -0.11,0.15 -0.18,0.15 -0.06,0 -0.15,-0.02 -0.26,-0.07 -0.13,-0.05 -0.19,-0.1 -0.19,-0.16 0,-0.02 0.02,-0.07 0.06,-0.15 0.21,-0.43 0.4,-0.96 0.57,-1.6 0.18,-0.68 0.25,-1.19 0.23,-1.55 -0.01,-0.14 -0.04,-0.21 -0.1,-0.21 -0.04,0 -0.1,0.04 -0.19,0.12 -0.82,0.8 -1.53,1.87 -2.13,3.21 -0.07,0.17 -0.16,0.25 -0.26,0.25 -0.07,0 -0.19,-0.04 -0.36,-0.12 -0.06,-0.03 -0.1,-0.06 -0.1,-0.08 0,-0.02 0.02,-0.06 0.05,-0.14 0.19,-0.41 0.38,-0.94 0.56,-1.57 0.2,-0.69 0.32,-1.22 0.34,-1.61 0.01,-0.12 0,-0.17 -0.01,-0.17 0,0 -0.05,0.04 -0.14,0.13 -0.08,0.09 -0.21,0.2 -0.36,0.34 -0.03,0.03 -0.06,0.04 -0.1,0.04 -0.04,0 -0.07,-0.01 -0.07,-0.05 0,-0.03 0.02,-0.06 0.05,-0.09 0.14,-0.18 0.33,-0.4 0.55,-0.67 0.05,-0.05 0.1,-0.08 0.15,-0.08 0.08,0 0.15,0.06 0.21,0.17 0.26,0.08 0.39,0.2 0.37,0.36 -0.04,0.36 -0.22,1.01 -0.55,1.94 0.22,-0.42 0.53,-0.89 0.95,-1.41 0.42,-0.52 0.73,-0.82 0.93,-0.92 0.1,-0.04 0.17,-0.07 0.21,-0.07 0.05,0 0.11,0.04 0.21,0.11 0.27,0.09 0.4,0.25 0.4,0.47 0,0.23 -0.06,0.59 -0.17,1.1 -0.08,0.41 -0.17,0.74 -0.24,0.97 0.09,-0.12 0.21,-0.28 0.36,-0.47 0.03,-0.03 0.05,-0.05 0.08,-0.05 0.05,0 0.07,0.03 0.07,0.09 0,0.02 0,0.04 -0.01,0.06 z m 3.93,-1.71 c -1,5.18 -2.3,7.78 -3.9,7.77 -0.58,0 -1.2,-0.31 -1.87,-0.95 -0.06,-0.06 -0.09,-0.12 -0.09,-0.18 0,-0.09 0.04,-0.14 0.13,-0.14 0.05,0 0.09,0.02 0.13,0.05 0.53,0.45 1.01,0.68 1.43,0.68 1.34,0 2.46,-1.97 3.35,-5.91 -0.54,0.94 -1.02,1.61 -1.42,2.01 -0.16,0.17 -0.31,0.25 -0.43,0.25 -0.12,0 -0.27,-0.07 -0.44,-0.2 -0.31,-0.15 -0.46,-0.4 -0.44,-0.75 0.02,-0.43 0.18,-0.95 0.49,-1.59 0.3,-0.61 0.62,-1.07 0.95,-1.39 0.18,-0.17 0.35,-0.26 0.5,-0.26 0.11,0 0.23,0.05 0.37,0.15 0.02,0.01 0.15,0.13 0.39,0.34 0.05,0.04 0.07,0.09 0.07,0.13 0,0.06 -0.04,0.09 -0.12,0.09 -0.04,0 -0.1,-0.02 -0.16,-0.05 -0.1,-0.05 -0.2,-0.08 -0.29,-0.08 -0.14,0 -0.26,0.05 -0.37,0.15 -0.24,0.21 -0.49,0.55 -0.75,1.02 -0.28,0.51 -0.46,0.98 -0.52,1.4 -0.02,0.12 -0.03,0.22 -0.03,0.3 0,0.24 0.07,0.36 0.2,0.36 0.09,0 0.18,-0.04 0.28,-0.13 0.39,-0.33 0.77,-0.81 1.15,-1.44 0.36,-0.58 0.61,-1.11 0.76,-1.6 0.05,-0.17 0.08,-0.33 0.08,-0.49 0,-0.12 0.03,-0.19 0.09,-0.19 0.06,0 0.18,0.07 0.36,0.21 0.11,0.08 0.14,0.23 0.1,0.44 z m 3,2.06 c -0.8,1.01 -1.35,1.52 -1.67,1.52 -0.16,0 -0.35,-0.11 -0.59,-0.32 -0.24,-0.11 -0.36,-0.27 -0.36,-0.46 0,-0.03 0,-0.07 0.01,-0.11 0.06,-0.45 0.18,-0.94 0.35,-1.48 -0.12,-0.06 -0.18,-0.12 -0.18,-0.18 0,-0.04 0.04,-0.06 0.11,-0.06 0.05,0 0.1,0.01 0.16,0.04 0.29,-0.65 0.55,-1.11 0.78,-1.39 0.15,-0.18 0.28,-0.27 0.4,-0.27 0.06,0 0.2,0.05 0.41,0.14 -0.01,-0.1 0.02,-0.15 0.09,-0.17 h 0.23 c 0.14,0 0.21,0.03 0.21,0.07 0,0.01 -0.01,0.04 -0.02,0.09 -0.01,0.04 -0.01,0.08 -0.01,0.12 v 0.44 c 0.01,0.17 0.01,0.29 0.01,0.35 0,0.4 -0.11,0.68 -0.33,0.84 -0.21,0.15 -0.43,0.22 -0.69,0.22 -0.13,0 -0.35,-0.04 -0.66,-0.11 -0.06,0.1 -0.12,0.3 -0.19,0.59 -0.09,0.37 -0.13,0.7 -0.12,0.99 0,0.17 0.05,0.25 0.16,0.25 0.04,0 0.09,-0.01 0.15,-0.03 0.38,-0.13 0.9,-0.54 1.57,-1.22 0.05,-0.04 0.09,-0.06 0.13,-0.06 0.06,0 0.09,0.03 0.09,0.09 0,0.03 -0.01,0.07 -0.04,0.11 z m -0.58,-2.16 c 0,-0.13 -0.02,-0.19 -0.08,-0.19 -0.03,0 -0.09,0.03 -0.15,0.08 -0.32,0.26 -0.6,0.71 -0.84,1.35 0.06,0.01 0.17,0.02 0.34,0.03 0.26,0.01 0.46,-0.05 0.59,-0.18 0.1,-0.1 0.15,-0.26 0.16,-0.48 -0.01,0.16 -0.02,-0.04 -0.02,-0.61 z m 4.05,-0.12 c 0,0.43 -0.06,0.83 -0.17,1.22 -0.04,0.12 -0.09,0.18 -0.15,0.18 -0.05,0 -0.15,-0.07 -0.3,-0.2 -0.08,-0.06 -0.1,-0.16 -0.06,-0.28 0.09,-0.29 0.14,-0.53 0.14,-0.71 0,-0.06 -0.02,-0.09 -0.04,-0.09 -0.04,0 -0.11,0.06 -0.19,0.17 -0.68,0.88 -1.19,1.87 -1.52,2.97 -0.11,0.35 -0.2,0.52 -0.28,0.52 -0.03,0 -0.15,-0.05 -0.38,-0.17 -0.11,-0.05 -0.15,-0.16 -0.11,-0.32 0.25,-1.13 0.53,-2.08 0.83,-2.85 -0.25,0.25 -0.4,0.43 -0.46,0.52 -0.03,0.04 -0.07,0.06 -0.11,0.06 -0.06,0 -0.08,-0.02 -0.08,-0.07 0,-0.03 0.01,-0.06 0.04,-0.1 0.15,-0.19 0.37,-0.49 0.64,-0.88 0.08,-0.14 0.16,-0.21 0.24,-0.21 0.06,0 0.18,0.04 0.36,0.13 0.1,0.05 0.11,0.12 0.04,0.21 -0.07,0.1 -0.2,0.43 -0.4,1 -0.19,0.56 -0.32,1 -0.39,1.31 0.44,-0.98 0.94,-1.86 1.51,-2.61 0.1,-0.14 0.19,-0.22 0.26,-0.22 0.05,0 0.13,0.04 0.24,0.12 0.13,0.02 0.22,0.04 0.25,0.07 0.06,0.03 0.09,0.11 0.09,0.23 z m 2.6,2.28 c -0.79,1.01 -1.35,1.52 -1.67,1.52 -0.15,0 -0.35,-0.11 -0.58,-0.32 -0.25,-0.11 -0.37,-0.27 -0.37,-0.46 0,-0.03 0.01,-0.07 0.01,-0.11 0.06,-0.45 0.18,-0.94 0.36,-1.48 -0.12,-0.06 -0.18,-0.12 -0.18,-0.18 0,-0.04 0.03,-0.06 0.1,-0.06 0.05,0 0.11,0.01 0.16,0.04 0.29,-0.65 0.55,-1.11 0.78,-1.39 0.15,-0.18 0.29,-0.27 0.41,-0.27 0.05,0 0.19,0.05 0.41,0.14 -0.02,-0.1 0.01,-0.15 0.08,-0.17 h 0.23 c 0.14,0 0.21,0.03 0.21,0.07 0,0.01 0,0.04 -0.01,0.09 -0.01,0.04 -0.02,0.08 -0.02,0.12 0,0.12 0,0.27 0.01,0.44 v 0.35 c 0,0.4 -0.11,0.68 -0.33,0.84 -0.2,0.15 -0.43,0.22 -0.68,0.22 -0.14,0 -0.36,-0.04 -0.67,-0.11 -0.05,0.1 -0.12,0.3 -0.18,0.59 -0.09,0.37 -0.14,0.7 -0.13,0.99 0,0.17 0.06,0.25 0.16,0.25 0.04,0 0.09,-0.01 0.15,-0.03 0.38,-0.13 0.91,-0.54 1.58,-1.22 0.04,-0.04 0.08,-0.06 0.13,-0.06 0.06,0 0.09,0.03 0.09,0.09 0,0.03 -0.02,0.07 -0.05,0.11 z m -0.57,-2.16 c 0,-0.13 -0.03,-0.19 -0.08,-0.19 -0.04,0 -0.09,0.03 -0.16,0.08 -0.32,0.26 -0.6,0.71 -0.84,1.35 0.06,0.01 0.18,0.02 0.34,0.03 0.26,0.01 0.46,-0.05 0.59,-0.18 0.1,-0.1 0.15,-0.26 0.16,-0.48 -0.01,0.16 -0.01,-0.04 -0.01,-0.61 z"
           id="path3393" />
        <path
           style="fill:#800000;stroke:#a2a2a2;stroke-width:3.79999995;stroke-linecap:round;stroke-linejoin:round;filter:url(#l)"
           inkscape:connector-curvature="0"
           transform="matrix(0.36222,0.23156,-1.3644,0.27556,1123.3,392.38)"
           d="m -248.5,529.1 51.34,2.07 13.89,49.47 -42.75,28.5 -40.31,-31.85 17.83,-48.19 z"
           id="path3395" />
        <g
           transform="translate(-79.802,4.0203)"
           id="g3397">
          <g
             transform="matrix(0.66524,0,0,0.39025,203.53,60.368)"
             id="g3399">
            <path
               style="fill:url(#radialGradient3342)"
               inkscape:connector-curvature="0"
               d="m 70.893,-55.746 c -2.281,0.029 -4.521,0.252 -6.719,0.657 v 46.344 c 0,-5e-4 8.808,20.58 -33.031,-29.126 C 11.607,-22.321 1.582,-1.234 17.08,59.754 L 97.83,142.91 21.799,71.286 c 7.77,25.396 20.585,66.504 36.344,105.96 l 83.347,96.5 -66.628,-56.71 c 73.308,167.86 187.26,356.22 227.69,368.84 -18.9,-81.9 -37.39,-295.19 -109.31,-470.28 -3.87,-9.41 -15.44,-35.353 -19.13,-43.721 l -2.47,99.471 -1.53,-116.47 c -23.11,-47.967 -45.47,-78.259 -64.87,-94.782 0.87,32.88 3.34,75.125 3.34,75.125 L 91.614,-49.562 c -7.617,-4.3 -14.581,-6.265 -20.719,-6.188 z"
               id="path3401" />
            <g
               transform="matrix(0.8641,-0.061139,0.086701,1.0323,-150.71,-23.353)"
               id="g3403">
              <path
                 style="fill:#e3dbdb"
                 inkscape:connector-curvature="0"
                 d="m 246.29,54.8 9.66,-14.977 c 81.61,191.38 135.07,261.44 286.48,900.44 l 21.05,152.74 C 475.04,725.723 393.28,350.173 246.29,54.803 z"
                 id="path3405" />
              <g
                 style="fill:#e3dbdb;stroke:#000000;stroke-linecap:round;stroke-linejoin:round"
                 transform="matrix(0.87266,0,0,1,202.17,40)"
                 id="g3407">
                <path
                   style="opacity:0.089952"
                   inkscape:connector-curvature="0"
                   d="m 57.562,0.78125 c 91.328,161.01 156.35,335.33 212.65,511.22 48.93,153.79 90.8,309.67 133.45,465.31 -5.29,-31.52 -9.39,-63.3 -15.41,-94.67 -47.01,-171.56 -95.26,-342.89 -154.22,-510.73 -33.16,-94.4 -71.73,-186.68 -117.58,-275.65 -17.512,-34.665 -35.468,-69.135 -52.575,-104.01 -2.104,2.8438 -4.208,5.6875 -6.313,8.5312 z"
                   id="path3409" />
                <path
                   style="opacity:0.089952"
                   inkscape:connector-curvature="0"
                   d="m 56.75,0.6875 c 96.61,170.48 163.93,355.57 222.42,542.02 46.07,147.94 86.2,297.65 127.14,447.07 -5.93,-35.71 -10.72,-71.67 -17.36,-107.23 -46.63,-170.4 -94.68,-340.65 -153.01,-507.35 -33.39,-95.33 -72.18,-188.63 -118.42,-278.36 -17.801,-35.322 -36.175,-70.39 -53.489,-105.96 -2.427,3.2658 -4.854,6.5367 -7.281,9.8075 z"
                   id="path3411" />
                <path
                   style="opacity:0.089952"
                   inkscape:connector-curvature="0"
                   d="m 55.906,0.65625 c 90.804,159.98 155.68,333.15 211.75,507.96 52.02,163.11 96.08,328.58 141.37,493.67995 -6.46,-39.53995 -12.07,-79.24995 -19.07,-118.65995 -47.38,-173.02 -96.02,-345.86 -155.63,-515.06 -32.8,-93.14 -70.97,-184.2 -116.17,-272.06 -18.02,-35.641 -36.486,-71.07 -54.035,-106.96 -2.74,3.7004 -5.479,7.3983 -8.219,11.096 z"
                   id="path3413" />
                <path
                   style="opacity:0.089952"
                   inkscape:connector-curvature="0"
                   d="m 55.062,0.59375 c 96.658,170.28 164,355.27 222.47,541.6 48.73,156.28 90.72,314.54 134.16,472.31005 -7.14,-43.69005 -13.39,-87.61005 -21.08,-131.21005 -46.75,-170.78 -94.89,-341.52 -153.35,-508.56 -33.28,-95.03 -71.95,-188.09 -118.02,-277.63 -18.31,-36.3 -37.154,-72.339 -54.99,-108.88 -3.062,4.1238 -6.125,8.2488 -9.188,12.374 z"
                   id="path3415" />
                <path
                   style="opacity:0.089952"
                   inkscape:connector-curvature="0"
                   d="m 54.219,0.5625 c 77.571,136.26 136.06,282.45 186.48,430.67 66.36,195.87 118.61,396.03 173.58,595.27 -7.57,-47.2 -14.74,-94.52 -22.56,-141.69 -43.1,-157.8 -87.5,-315.24 -139.93,-470.24 -33.69,-99.45 -71.8,-197.53 -118.75,-291.48 -22.56,-45.574 -46.369,-90.515 -68.665,-136.22 -3.385,4.5675 -6.771,9.13 -10.156,13.692 z"
                   id="path3417" />
                <path
                   style="opacity:0.089952"
                   inkscape:connector-curvature="0"
                   d="m 53.531,0.5 c 6.96,12.206 13.792,24.485 20.42,36.873 7.909,14.64 15.544,29.425 23.059,44.274 10.32,20.463 20.24,41.113 29.88,61.913 8.04,17.41 15.9,34.91 23.49,52.52 7.99,18.52 15.81,37.12 23.39,55.82 6.21,15.49 12.43,30.97 18.37,46.57 4.92,12.76 9.77,25.54 14.5,38.37 12.13,32.79 23.77,65.76 34.96,98.89 5.58,16.38 10.96,32.83 16.33,49.28 8.59,26.34 16.91,52.76 25.07,79.24 8.44,27.32 16.58,54.74 24.69,82.16 7.62,25.97 15.13,51.97 22.52,78 13.17,46.34 26.05,92.76 38.78,139.22 13.38,48.67 26.64,97.37 40,146.07 2.52,9.1 5.05,18.3 7.57,27.4 -7.97,-50.41 -15.92,-100.82 -23.9,-151.23 -7.3,-26.67 -14.55,-53.35 -21.98,-79.99 -5.09,-18.36 -10.22,-36.71 -15.41,-55.04 -5.77,-20.43 -11.6,-40.84 -17.49,-61.24 -10.32,-35.73 -20.82,-71.41 -31.64,-106.99 -8.39,-27.66 -16.95,-55.27 -25.71,-82.81 -3.02,-9.43 -6.03,-18.85 -9.09,-28.26 -5.08,-15.79 -10.33,-31.51 -15.62,-47.23 -7.23,-21.45 -14.62,-42.84 -22.27,-64.14 -6.31,-17.55 -12.74,-35.05 -19.37,-52.47 -3.95,-10.34 -7.93,-20.65 -12.01,-30.93 -2.25,-5.67 -4.53,-11.33 -6.81,-16.99 -4.24,-10.4 -8.53,-20.79 -12.94,-31.13 -5.15,-12.06 -10.39,-24.08 -15.75,-36.04 -9.22,-20.52 -18.85,-40.86 -28.71,-61.08 -5.7,-11.66 -11.53,-23.25 -17.38,-34.841 C 109.56,75.035 98.46,53.47 87.472,31.849 82.14,21.293 76.807,10.737 71.559,0.138 69.184,-4.6579 66.844,-9.4704 64.5,-14.281 60.844,-9.3542 57.188,-4.4271 53.531,0.5 z"
                   id="path3419" />
                <path
                   style="opacity:0.089952"
                   inkscape:connector-curvature="0"
                   d="m 64,-14.969 c -3.575,5.3287 -8.3,10.244 -11.188,15.813 77.438,136.09 135.93,282.11 186.35,430.17 67.82,200 120.79,404.47 177.06,607.89 3.08,-0.1 -0.58,-7.6 -0.26,-10.6 -7.67,-47.96 -14.97,-95.98 -22.86,-143.87 -42.76,-156.67 -86.96,-312.98 -138.84,-466.9 -33.15,-98.2 -70.52,-195.12 -116.52,-288.05 C 114.012,81.159 88.704,33.625 65.127,-14.776 l -0.5,-0.376 -0.625,0.187 z"
                   id="path3421" />
                <path
                   style="opacity:0.089952"
                   inkscape:connector-curvature="0"
                   d="m 63.625,-15.562 c -3.623,5.6125 -9.246,10.582 -11.437,16.75 91.502,160.97 156.73,335.36 213.03,511.36 55.43,173.96 101.73,350.63 150.34,526.55 5.61,2.4 0.44,-9.2 0.85,-12.4 -7.8,-47.99 -14.72,-96.15 -23.08,-144 -46.96,-171.54 -95.23,-343.03 -154.12,-510.79 -33.3,-95.11 -72.21,-188.24 -118.38,-277.84 -18.36,-36.388 -37.252,-72.509 -55.08,-109.16 -0.58,-0.941 -1.265,-0.783 -2.125,-0.472 z"
                   id="path3423" />
                <path
                   style="opacity:0.089952"
                   inkscape:connector-curvature="0"
                   d="m 63.344,-16.219 c -3.987,5.642 -9.263,10.875 -12,17.156 95.946,169.1 163.29,352.77 221.49,537.96 51.76,165.5 95.86,333.26 142.05,500.4 6.83,4.4 2.64,-8.1 2.37,-11.7 -7.85,-48.36 -14.85,-96.87 -23.23,-145.09 -46.07,-168.41 -93.5,-336.6 -150.87,-501.54 -33.83,-97.39 -73.14,-192.79 -120.34,-284.54 -18.76,-37.299 -38.171,-74.279 -56.435,-111.84 -0.879,-1.12 -1.732,-1.234 -3.031,-0.809 z"
                   id="path3425" />
                <path
                   style="opacity:0.089952"
                   inkscape:connector-curvature="0"
                   d="m 63.188,-16.938 c -4.36,5.698 -9.83,11.285 -12.532,17.907 95.894,169.38 163.33,352.87 221.52,538.15 51.7,165.44 95.9,333.26 142.04,500.38 5.86,6.2 6.16,-5.3 4.22,-9.1 -7.92,-49.01 -15.15,-98.18 -23.5,-147.11 -47.14,-172.23 -95.56,-344.32 -154.75,-512.79 -33.34,-95.18 -72.34,-188.33 -118.57,-277.97 -18.17,-36.08 -36.934,-71.891 -54.62,-108.22 -1.192,-1.484 -1.979,-1.662 -3.812,-1.248 z"
                   id="path3427" />
                <path
                   style="opacity:0.089952"
                   inkscape:connector-curvature="0"
                   d="m 63.125,-17.688 c -4.844,5.658 -10.403,11.696 -13.187,18.626 29.717,53.255 57.622,107.84 82.582,163.61 89.77,199.89 152.24,410.76 211.29,621.45 23.54,84.48 46.38,169.15 69.72,253.7 5.38,7.1 8.69,-3.7 5.75,-8.4 -7.96,-49.38 -15.28,-98.9 -23.65,-148.2 -47.2,-172.47 -95.73,-344.77 -155.01,-513.54 -33.13,-94.31 -71.68,-186.66 -117.47,-275.56 -18.46,-36.677 -37.562,-73.055 -55.494,-110 -1.298,-1.638 -2.477,-2.039 -4.531,-1.688 z"
                   id="path3429" />
              </g>
              <g
                 style="fill:#241c1c;stroke:#000000;stroke-linecap:round;stroke-linejoin:round"
                 transform="matrix(0.87266,0,0,1,193.44,40)"
                 id="g3431">
                <path
                   style="opacity:0.089952"
                   inkscape:connector-curvature="0"
                   d="m 57.562,0.78125 c 91.328,161.01 156.35,335.33 212.65,511.22 48.93,153.79 90.8,309.67 133.45,465.31 -5.29,-31.52 -9.39,-63.3 -15.41,-94.67 -47.01,-171.56 -95.26,-342.89 -154.22,-510.73 -33.16,-94.4 -71.73,-186.68 -117.58,-275.65 -17.512,-34.665 -35.468,-69.135 -52.575,-104.01 -2.104,2.8438 -4.208,5.6875 -6.313,8.5312 z"
                   id="path3433" />
                <path
                   style="opacity:0.089952"
                   inkscape:connector-curvature="0"
                   d="m 56.75,0.6875 c 96.61,170.48 163.93,355.57 222.42,542.02 46.07,147.94 86.2,297.65 127.14,447.07 -5.93,-35.71 -10.72,-71.67 -17.36,-107.23 -46.63,-170.4 -94.68,-340.65 -153.01,-507.35 -33.39,-95.33 -72.18,-188.63 -118.42,-278.36 -17.801,-35.322 -36.175,-70.39 -53.489,-105.96 -2.427,3.2658 -4.854,6.5367 -7.281,9.8075 z"
                   id="path3435" />
                <path
                   style="opacity:0.089952"
                   inkscape:connector-curvature="0"
                   d="m 55.906,0.65625 c 90.804,159.98 155.68,333.15 211.75,507.96 52.02,163.11 96.08,328.58 141.37,493.67995 -6.46,-39.53995 -12.07,-79.24995 -19.07,-118.65995 -47.38,-173.02 -96.02,-345.86 -155.63,-515.06 -32.8,-93.14 -70.97,-184.2 -116.17,-272.06 -18.02,-35.641 -36.486,-71.07 -54.035,-106.96 -2.74,3.7004 -5.479,7.3983 -8.219,11.096 z"
                   id="path3437" />
                <path
                   style="opacity:0.089952"
                   inkscape:connector-curvature="0"
                   d="m 55.062,0.59375 c 96.658,170.28 164,355.27 222.47,541.6 48.73,156.28 90.72,314.54 134.16,472.31005 -7.14,-43.69005 -13.39,-87.61005 -21.08,-131.21005 -46.75,-170.78 -94.89,-341.52 -153.35,-508.56 -33.28,-95.03 -71.95,-188.09 -118.02,-277.63 -18.31,-36.3 -37.154,-72.339 -54.99,-108.88 -3.062,4.1238 -6.125,8.2488 -9.188,12.374 z"
                   id="path3439" />
                <path
                   style="opacity:0.089952"
                   inkscape:connector-curvature="0"
                   d="m 54.219,0.5625 c 77.571,136.26 136.06,282.45 186.48,430.67 66.36,195.87 118.61,396.03 173.58,595.27 -7.57,-47.2 -14.74,-94.52 -22.56,-141.69 -43.1,-157.8 -87.5,-315.24 -139.93,-470.24 -33.69,-99.45 -71.8,-197.53 -118.75,-291.48 -22.56,-45.574 -46.369,-90.515 -68.665,-136.22 -3.385,4.5675 -6.771,9.13 -10.156,13.692 z"
                   id="path3441" />
                <path
                   style="opacity:0.089952"
                   inkscape:connector-curvature="0"
                   d="m 53.531,0.5 c 6.96,12.206 13.792,24.485 20.42,36.873 7.909,14.64 15.544,29.425 23.059,44.274 10.32,20.463 20.24,41.113 29.88,61.913 8.04,17.41 15.9,34.91 23.49,52.52 7.99,18.52 15.81,37.12 23.39,55.82 6.21,15.49 12.43,30.97 18.37,46.57 4.92,12.76 9.77,25.54 14.5,38.37 12.13,32.79 23.77,65.76 34.96,98.89 5.58,16.38 10.96,32.83 16.33,49.28 8.59,26.34 16.91,52.76 25.07,79.24 8.44,27.32 16.58,54.74 24.69,82.16 7.62,25.97 15.13,51.97 22.52,78 13.17,46.34 26.05,92.76 38.78,139.22 13.38,48.67 26.64,97.37 40,146.07 2.52,9.1 5.05,18.3 7.57,27.4 -7.97,-50.41 -15.92,-100.82 -23.9,-151.23 -7.3,-26.67 -14.55,-53.35 -21.98,-79.99 -5.09,-18.36 -10.22,-36.71 -15.41,-55.04 -5.77,-20.43 -11.6,-40.84 -17.49,-61.24 -10.32,-35.73 -20.82,-71.41 -31.64,-106.99 -8.39,-27.66 -16.95,-55.27 -25.71,-82.81 -3.02,-9.43 -6.03,-18.85 -9.09,-28.26 -5.08,-15.79 -10.33,-31.51 -15.62,-47.23 -7.23,-21.45 -14.62,-42.84 -22.27,-64.14 -6.31,-17.55 -12.74,-35.05 -19.37,-52.47 -3.95,-10.34 -7.93,-20.65 -12.01,-30.93 -2.25,-5.67 -4.53,-11.33 -6.81,-16.99 -4.24,-10.4 -8.53,-20.79 -12.94,-31.13 -5.15,-12.06 -10.39,-24.08 -15.75,-36.04 -9.22,-20.52 -18.85,-40.86 -28.71,-61.08 -5.7,-11.66 -11.53,-23.25 -17.38,-34.841 C 109.56,75.035 98.46,53.47 87.472,31.849 82.14,21.293 76.807,10.737 71.559,0.138 69.184,-4.6579 66.844,-9.4704 64.5,-14.281 60.844,-9.3542 57.188,-4.4271 53.531,0.5 z"
                   id="path3443" />
                <path
                   style="opacity:0.089952"
                   inkscape:connector-curvature="0"
                   d="m 64,-14.969 c -3.575,5.3287 -8.3,10.244 -11.188,15.813 77.438,136.09 135.93,282.11 186.35,430.17 67.82,200 120.79,404.47 177.06,607.89 3.08,-0.1 -0.58,-7.6 -0.26,-10.6 -7.67,-47.96 -14.97,-95.98 -22.86,-143.87 -42.76,-156.67 -86.96,-312.98 -138.84,-466.9 -33.15,-98.2 -70.52,-195.12 -116.52,-288.05 C 114.012,81.159 88.704,33.625 65.127,-14.776 l -0.5,-0.376 -0.625,0.187 z"
                   id="path3445" />
                <path
                   style="opacity:0.089952"
                   inkscape:connector-curvature="0"
                   d="m 63.625,-15.562 c -3.623,5.6125 -9.246,10.582 -11.437,16.75 91.502,160.97 156.73,335.36 213.03,511.36 55.43,173.96 101.73,350.63 150.34,526.55 5.61,2.4 0.44,-9.2 0.85,-12.4 -7.8,-47.99 -14.72,-96.15 -23.08,-144 -46.96,-171.54 -95.23,-343.03 -154.12,-510.79 -33.3,-95.11 -72.21,-188.24 -118.38,-277.84 -18.36,-36.388 -37.252,-72.509 -55.08,-109.16 -0.58,-0.941 -1.265,-0.783 -2.125,-0.472 z"
                   id="path3447" />
                <path
                   style="opacity:0.089952"
                   inkscape:connector-curvature="0"
                   d="m 63.344,-16.219 c -3.987,5.642 -9.263,10.875 -12,17.156 95.946,169.1 163.29,352.77 221.49,537.96 51.76,165.5 95.86,333.26 142.05,500.4 6.83,4.4 2.64,-8.1 2.37,-11.7 -7.85,-48.36 -14.85,-96.87 -23.23,-145.09 -46.07,-168.41 -93.5,-336.6 -150.87,-501.54 -33.83,-97.39 -73.14,-192.79 -120.34,-284.54 -18.76,-37.299 -38.171,-74.279 -56.435,-111.84 -0.879,-1.12 -1.732,-1.234 -3.031,-0.809 z"
                   id="path3449" />
                <path
                   style="opacity:0.089952"
                   inkscape:connector-curvature="0"
                   d="m 63.188,-16.938 c -4.36,5.698 -9.83,11.285 -12.532,17.907 95.894,169.38 163.33,352.87 221.52,538.15 51.7,165.44 95.9,333.26 142.04,500.38 5.86,6.2 6.16,-5.3 4.22,-9.1 -7.92,-49.01 -15.15,-98.18 -23.5,-147.11 -47.14,-172.23 -95.56,-344.32 -154.75,-512.79 -33.34,-95.18 -72.34,-188.33 -118.57,-277.97 -18.17,-36.08 -36.934,-71.891 -54.62,-108.22 -1.192,-1.484 -1.979,-1.662 -3.812,-1.248 z"
                   id="path3451" />
                <path
                   style="opacity:0.089952"
                   inkscape:connector-curvature="0"
                   d="m 63.125,-17.688 c -4.844,5.658 -10.403,11.696 -13.187,18.626 29.717,53.255 57.622,107.84 82.582,163.61 89.77,199.89 152.24,410.76 211.29,621.45 23.54,84.48 46.38,169.15 69.72,253.7 5.38,7.1 8.69,-3.7 5.75,-8.4 -7.96,-49.38 -15.28,-98.9 -23.65,-148.2 -47.2,-172.47 -95.73,-344.77 -155.01,-513.54 -33.13,-94.31 -71.68,-186.66 -117.47,-275.56 -18.46,-36.677 -37.562,-73.055 -55.494,-110 -1.298,-1.638 -2.477,-2.039 -4.531,-1.688 z"
                   id="path3453" />
              </g>
            </g>
          </g>
          <path
             style="fill-rule:evenodd;stroke:#000000;stroke-width:0.93563998px"
             inkscape:connector-curvature="0"
             d="m 473.55,425.17 -6.58,8.38 27.34,50.29 -20.76,-58.67 z"
             id="path3455" />
        </g>
        <path
           style="filter:url(#m)"
           inkscape:connector-curvature="0"
           transform="matrix(0.61131,0.062164,-0.032021,0.45582,478.52,155.06)"
           d="m 322.86,886.65 a 231.43,37.143 0 1 1 -462.86,0 231.43,37.143 0 1 1 462.86,0 z"
           id="path3457" />
        <g
           transform="matrix(1.1237,0,0,1.0821,-101.23,-292.63)"
           id="g3459">
          <g
             style="stroke-linecap:round;stroke-linejoin:round"
             transform="matrix(0.29531,0,0,0.25605,509.7,592.46)"
             id="g3461">
            <path
               style="fill:url(#radialGradient3344);stroke:url(#radialGradient3346);stroke-width:3.79999995"
               inkscape:connector-curvature="0"
               d="m 613.43,618.36 c 0,37.85 -94.08,68.57 -210,68.57 -115.92,0 -210,-30.72 -210,-68.57 0,-37.85 94.08,-68.57 210,-68.57 115.92,0 210,30.72 210,68.57 z"
               id="path3463" />
            <path
               style="fill:url(#linearGradient3348);stroke:url(#linearGradient3350);stroke-width:3.79999995"
               inkscape:connector-curvature="0"
               d="M 405.29,686.65 C 521.21,686.65 616,656.21 616,618.36 v 200 c 0,37.85 -94.08,68.57 -210.71,68.29 -116.64,-0.29 -210.72,-31.01 -210.72,-68.86 v -200 c 0,37.85 94.8,68.86 210.72,68.86 z"
               id="path3465" />
            <path
               style="fill:url(#linearGradient3352);stroke:url(#linearGradient3354);stroke-width:1.63250005"
               inkscape:connector-curvature="0"
               d="m 514.24,530.81 c 0,14.09 -46.67,25.52 -104.17,25.52 -57.5,0 -104.17,-11.43 -104.17,-25.52 0,-14.08 46.67,-25.51 104.17,-25.51 57.5,0 104.17,11.43 104.17,25.51 z"
               id="path3467" />
            <path
               style="fill:url(#linearGradient3356);stroke:url(#linearGradient3358);stroke-width:1.63250005"
               inkscape:connector-curvature="0"
               d="m 410,556.43 c 57.5,0 104.52,-11.32 104.52,-25.4 v 74.41 c 0,14.09 -46.67,25.52 -104.52,25.41 -57.85,-0.1 -104.52,-11.53 -104.52,-25.62 v -74.42 c 0,14.09 47.02,25.62 104.52,25.62 z"
               id="path3469" />
          </g>
        </g>
        <g
           style="filter:url(#n)"
           transform="translate(-78.711,3.8782)"
           id="g3471">
          <path
             style="filter:url(#o)"
             inkscape:connector-curvature="0"
             d="m 154.5,395.3 c -0.9,0.35 -1.73,0.73 -2.51,1.12 l 11.82,6.65 c 0,0 8.76,1.6 -20.59,0.87 -3.81,5.22 -2.43,9.78 19.29,16.16 l 53.38,-0.42 -48.56,1.35 c 9.58,2.45 25.17,6.39 41.51,9.64 l 57.81,1.1 -41.01,2.05 c 72.01,12.87 165.44,22.47 184.77,18.1 -28.42,-8.86 -90.17,-36.63 -163.47,-50.75 -3.94,-0.76 -15.16,-2.71 -18.77,-3.34 L 252.55,412.47 222.24,396 c -21.44,-3.35 -38.07,-4.28 -50.01,-3.68 8.73,4.58 20.48,10.27 20.48,10.27 l -28.37,-9.57 c -4.14,0.55 -7.41,1.33 -9.84,2.28 z"
             id="path3473" />
          <g
             transform="matrix(0.16198,-0.087456,0.14674,0.083693,243.49,442.47)"
             id="g3475">
            <path
               inkscape:connector-curvature="0"
               d="m 246.29,54.8 9.66,-14.977 c 81.61,191.38 135.07,261.44 286.48,900.44 l 21.05,152.74 C 475.04,725.723 393.28,350.173 246.29,54.803 z"
               id="path3477" />
            <g
               style="stroke:#000000;stroke-linecap:round;stroke-linejoin:round"
               transform="matrix(0.87266,0,0,1,202.17,40)"
               id="g3479">
              <path
                 style="opacity:0.089952"
                 inkscape:connector-curvature="0"
                 d="m 57.562,0.78125 c 91.328,161.01 156.35,335.33 212.65,511.22 48.93,153.79 90.8,309.67 133.45,465.31 -5.29,-31.52 -9.39,-63.3 -15.41,-94.67 -47.01,-171.56 -95.26,-342.89 -154.22,-510.73 -33.16,-94.4 -71.73,-186.68 -117.58,-275.65 -17.512,-34.665 -35.468,-69.135 -52.575,-104.01 -2.104,2.8438 -4.208,5.6875 -6.313,8.5312 z"
                 id="path3481" />
              <path
                 style="opacity:0.089952"
                 inkscape:connector-curvature="0"
                 d="m 56.75,0.6875 c 96.61,170.48 163.93,355.57 222.42,542.02 46.07,147.94 86.2,297.65 127.14,447.07 -5.93,-35.71 -10.72,-71.67 -17.36,-107.23 -46.63,-170.4 -94.68,-340.65 -153.01,-507.35 -33.39,-95.33 -72.18,-188.63 -118.42,-278.36 -17.801,-35.322 -36.175,-70.39 -53.489,-105.96 -2.427,3.2658 -4.854,6.5367 -7.281,9.8075 z"
                 id="path3483" />
              <path
                 style="opacity:0.089952"
                 inkscape:connector-curvature="0"
                 d="m 55.906,0.65625 c 90.804,159.98 155.68,333.15 211.75,507.96 52.02,163.11 96.08,328.58 141.37,493.67995 -6.46,-39.53995 -12.07,-79.24995 -19.07,-118.65995 -47.38,-173.02 -96.02,-345.86 -155.63,-515.06 -32.8,-93.14 -70.97,-184.2 -116.17,-272.06 -18.02,-35.641 -36.486,-71.07 -54.035,-106.96 -2.74,3.7004 -5.479,7.3983 -8.219,11.096 z"
                 id="path3485" />
              <path
                 style="opacity:0.089952"
                 inkscape:connector-curvature="0"
                 d="m 55.062,0.59375 c 96.658,170.28 164,355.27 222.47,541.6 48.73,156.28 90.72,314.54 134.16,472.31005 -7.14,-43.69005 -13.39,-87.61005 -21.08,-131.21005 -46.75,-170.78 -94.89,-341.52 -153.35,-508.56 -33.28,-95.03 -71.95,-188.09 -118.02,-277.63 -18.31,-36.3 -37.154,-72.339 -54.99,-108.88 -3.062,4.1238 -6.125,8.2488 -9.188,12.374 z"
                 id="path3487" />
              <path
                 style="opacity:0.089952"
                 inkscape:connector-curvature="0"
                 d="m 54.219,0.5625 c 77.571,136.26 136.06,282.45 186.48,430.67 66.36,195.87 118.61,396.03 173.58,595.27 -7.57,-47.2 -14.74,-94.52 -22.56,-141.69 -43.1,-157.8 -87.5,-315.24 -139.93,-470.24 -33.69,-99.45 -71.8,-197.53 -118.75,-291.48 -22.56,-45.574 -46.369,-90.515 -68.665,-136.22 -3.385,4.5675 -6.771,9.13 -10.156,13.692 z"
                 id="path3489" />
              <path
                 style="opacity:0.089952"
                 inkscape:connector-curvature="0"
                 d="m 53.531,0.5 c 6.96,12.206 13.792,24.485 20.42,36.873 7.909,14.64 15.544,29.425 23.059,44.274 10.32,20.463 20.24,41.113 29.88,61.913 8.04,17.41 15.9,34.91 23.49,52.52 7.99,18.52 15.81,37.12 23.39,55.82 6.21,15.49 12.43,30.97 18.37,46.57 4.92,12.76 9.77,25.54 14.5,38.37 12.13,32.79 23.77,65.76 34.96,98.89 5.58,16.38 10.96,32.83 16.33,49.28 8.59,26.34 16.91,52.76 25.07,79.24 8.44,27.32 16.58,54.74 24.69,82.16 7.62,25.97 15.13,51.97 22.52,78 13.17,46.34 26.05,92.76 38.78,139.22 13.38,48.67 26.64,97.37 40,146.07 2.52,9.1 5.05,18.3 7.57,27.4 -7.97,-50.41 -15.92,-100.82 -23.9,-151.23 -7.3,-26.67 -14.55,-53.35 -21.98,-79.99 -5.09,-18.36 -10.22,-36.71 -15.41,-55.04 -5.77,-20.43 -11.6,-40.84 -17.49,-61.24 -10.32,-35.73 -20.82,-71.41 -31.64,-106.99 -8.39,-27.66 -16.95,-55.27 -25.71,-82.81 -3.02,-9.43 -6.03,-18.85 -9.09,-28.26 -5.08,-15.79 -10.33,-31.51 -15.62,-47.23 -7.23,-21.45 -14.62,-42.84 -22.27,-64.14 -6.31,-17.55 -12.74,-35.05 -19.37,-52.47 -3.95,-10.34 -7.93,-20.65 -12.01,-30.93 -2.25,-5.67 -4.53,-11.33 -6.81,-16.99 -4.24,-10.4 -8.53,-20.79 -12.94,-31.13 -5.15,-12.06 -10.39,-24.08 -15.75,-36.04 -9.22,-20.52 -18.85,-40.86 -28.71,-61.08 -5.7,-11.66 -11.53,-23.25 -17.38,-34.841 C 109.56,75.035 98.46,53.47 87.472,31.849 82.14,21.293 76.807,10.737 71.559,0.138 69.184,-4.6579 66.844,-9.4704 64.5,-14.281 60.844,-9.3542 57.188,-4.4271 53.531,0.5 z"
                 id="path3491" />
              <path
                 style="opacity:0.089952"
                 inkscape:connector-curvature="0"
                 d="m 64,-14.969 c -3.575,5.3287 -8.3,10.244 -11.188,15.813 77.438,136.09 135.93,282.11 186.35,430.17 67.82,200 120.79,404.47 177.06,607.89 3.08,-0.1 -0.58,-7.6 -0.26,-10.6 -7.67,-47.96 -14.97,-95.98 -22.86,-143.87 -42.76,-156.67 -86.96,-312.98 -138.84,-466.9 -33.15,-98.2 -70.52,-195.12 -116.52,-288.05 C 114.012,81.159 88.704,33.625 65.127,-14.776 l -0.5,-0.376 -0.625,0.187 z"
                 id="path3493" />
              <path
                 style="opacity:0.089952"
                 inkscape:connector-curvature="0"
                 d="m 63.625,-15.562 c -3.623,5.6125 -9.246,10.582 -11.437,16.75 91.502,160.97 156.73,335.36 213.03,511.36 55.43,173.96 101.73,350.63 150.34,526.55 5.61,2.4 0.44,-9.2 0.85,-12.4 -7.8,-47.99 -14.72,-96.15 -23.08,-144 -46.96,-171.54 -95.23,-343.03 -154.12,-510.79 -33.3,-95.11 -72.21,-188.24 -118.38,-277.84 -18.36,-36.388 -37.252,-72.509 -55.08,-109.16 -0.58,-0.941 -1.265,-0.783 -2.125,-0.472 z"
                 id="path3495" />
              <path
                 style="opacity:0.089952"
                 inkscape:connector-curvature="0"
                 d="m 63.344,-16.219 c -3.987,5.642 -9.263,10.875 -12,17.156 95.946,169.1 163.29,352.77 221.49,537.96 51.76,165.5 95.86,333.26 142.05,500.4 6.83,4.4 2.64,-8.1 2.37,-11.7 -7.85,-48.36 -14.85,-96.87 -23.23,-145.09 -46.07,-168.41 -93.5,-336.6 -150.87,-501.54 -33.83,-97.39 -73.14,-192.79 -120.34,-284.54 -18.76,-37.299 -38.171,-74.279 -56.435,-111.84 -0.879,-1.12 -1.732,-1.234 -3.031,-0.809 z"
                 id="path3497" />
              <path
                 style="opacity:0.089952"
                 inkscape:connector-curvature="0"
                 d="m 63.188,-16.938 c -4.36,5.698 -9.83,11.285 -12.532,17.907 95.894,169.38 163.33,352.87 221.52,538.15 51.7,165.44 95.9,333.26 142.04,500.38 5.86,6.2 6.16,-5.3 4.22,-9.1 -7.92,-49.01 -15.15,-98.18 -23.5,-147.11 -47.14,-172.23 -95.56,-344.32 -154.75,-512.79 -33.34,-95.18 -72.34,-188.33 -118.57,-277.97 -18.17,-36.08 -36.934,-71.891 -54.62,-108.22 -1.192,-1.484 -1.979,-1.662 -3.812,-1.248 z"
                 id="path3499" />
              <path
                 style="opacity:0.089952"
                 inkscape:connector-curvature="0"
                 d="m 63.125,-17.688 c -4.844,5.658 -10.403,11.696 -13.187,18.626 29.717,53.255 57.622,107.84 82.582,163.61 89.77,199.89 152.24,410.76 211.29,621.45 23.54,84.48 46.38,169.15 69.72,253.7 5.38,7.1 8.69,-3.7 5.75,-8.4 -7.96,-49.38 -15.28,-98.9 -23.65,-148.2 -47.2,-172.47 -95.73,-344.77 -155.01,-513.54 -33.13,-94.31 -71.68,-186.66 -117.47,-275.56 -18.46,-36.677 -37.562,-73.055 -55.494,-110 -1.298,-1.638 -2.477,-2.039 -4.531,-1.688 z"
                 id="path3501" />
            </g>
            <g
               style="stroke:#000000;stroke-linecap:round;stroke-linejoin:round"
               transform="matrix(0.87266,0,0,1,193.44,40)"
               id="g3503">
              <path
                 style="opacity:0.089952"
                 inkscape:connector-curvature="0"
                 d="m 57.562,0.78125 c 91.328,161.01 156.35,335.33 212.65,511.22 48.93,153.79 90.8,309.67 133.45,465.31 -5.29,-31.52 -9.39,-63.3 -15.41,-94.67 -47.01,-171.56 -95.26,-342.89 -154.22,-510.73 -33.16,-94.4 -71.73,-186.68 -117.58,-275.65 -17.512,-34.665 -35.468,-69.135 -52.575,-104.01 -2.104,2.8438 -4.208,5.6875 -6.313,8.5312 z"
                 id="path3505" />
              <path
                 style="opacity:0.089952"
                 inkscape:connector-curvature="0"
                 d="m 56.75,0.6875 c 96.61,170.48 163.93,355.57 222.42,542.02 46.07,147.94 86.2,297.65 127.14,447.07 -5.93,-35.71 -10.72,-71.67 -17.36,-107.23 -46.63,-170.4 -94.68,-340.65 -153.01,-507.35 -33.39,-95.33 -72.18,-188.63 -118.42,-278.36 -17.801,-35.322 -36.175,-70.39 -53.489,-105.96 -2.427,3.2658 -4.854,6.5367 -7.281,9.8075 z"
                 id="path3507" />
              <path
                 style="opacity:0.089952"
                 inkscape:connector-curvature="0"
                 d="m 55.906,0.65625 c 90.804,159.98 155.68,333.15 211.75,507.96 52.02,163.11 96.08,328.58 141.37,493.67995 -6.46,-39.53995 -12.07,-79.24995 -19.07,-118.65995 -47.38,-173.02 -96.02,-345.86 -155.63,-515.06 -32.8,-93.14 -70.97,-184.2 -116.17,-272.06 -18.02,-35.641 -36.486,-71.07 -54.035,-106.96 -2.74,3.7004 -5.479,7.3983 -8.219,11.096 z"
                 id="path3509" />
              <path
                 style="opacity:0.089952"
                 inkscape:connector-curvature="0"
                 d="m 55.062,0.59375 c 96.658,170.28 164,355.27 222.47,541.6 48.73,156.28 90.72,314.54 134.16,472.31005 -7.14,-43.69005 -13.39,-87.61005 -21.08,-131.21005 -46.75,-170.78 -94.89,-341.52 -153.35,-508.56 -33.28,-95.03 -71.95,-188.09 -118.02,-277.63 -18.31,-36.3 -37.154,-72.339 -54.99,-108.88 -3.062,4.1238 -6.125,8.2488 -9.188,12.374 z"
                 id="path3511" />
              <path
                 style="opacity:0.089952"
                 inkscape:connector-curvature="0"
                 d="m 54.219,0.5625 c 77.571,136.26 136.06,282.45 186.48,430.67 66.36,195.87 118.61,396.03 173.58,595.27 -7.57,-47.2 -14.74,-94.52 -22.56,-141.69 -43.1,-157.8 -87.5,-315.24 -139.93,-470.24 -33.69,-99.45 -71.8,-197.53 -118.75,-291.48 -22.56,-45.574 -46.369,-90.515 -68.665,-136.22 -3.385,4.5675 -6.771,9.13 -10.156,13.692 z"
                 id="path3513" />
              <path
                 style="opacity:0.089952"
                 inkscape:connector-curvature="0"
                 d="m 53.531,0.5 c 6.96,12.206 13.792,24.485 20.42,36.873 7.909,14.64 15.544,29.425 23.059,44.274 10.32,20.463 20.24,41.113 29.88,61.913 8.04,17.41 15.9,34.91 23.49,52.52 7.99,18.52 15.81,37.12 23.39,55.82 6.21,15.49 12.43,30.97 18.37,46.57 4.92,12.76 9.77,25.54 14.5,38.37 12.13,32.79 23.77,65.76 34.96,98.89 5.58,16.38 10.96,32.83 16.33,49.28 8.59,26.34 16.91,52.76 25.07,79.24 8.44,27.32 16.58,54.74 24.69,82.16 7.62,25.97 15.13,51.97 22.52,78 13.17,46.34 26.05,92.76 38.78,139.22 13.38,48.67 26.64,97.37 40,146.07 2.52,9.1 5.05,18.3 7.57,27.4 -7.97,-50.41 -15.92,-100.82 -23.9,-151.23 -7.3,-26.67 -14.55,-53.35 -21.98,-79.99 -5.09,-18.36 -10.22,-36.71 -15.41,-55.04 -5.77,-20.43 -11.6,-40.84 -17.49,-61.24 -10.32,-35.73 -20.82,-71.41 -31.64,-106.99 -8.39,-27.66 -16.95,-55.27 -25.71,-82.81 -3.02,-9.43 -6.03,-18.85 -9.09,-28.26 -5.08,-15.79 -10.33,-31.51 -15.62,-47.23 -7.23,-21.45 -14.62,-42.84 -22.27,-64.14 -6.31,-17.55 -12.74,-35.05 -19.37,-52.47 -3.95,-10.34 -7.93,-20.65 -12.01,-30.93 -2.25,-5.67 -4.53,-11.33 -6.81,-16.99 -4.24,-10.4 -8.53,-20.79 -12.94,-31.13 -5.15,-12.06 -10.39,-24.08 -15.75,-36.04 -9.22,-20.52 -18.85,-40.86 -28.71,-61.08 -5.7,-11.66 -11.53,-23.25 -17.38,-34.841 C 109.56,75.035 98.46,53.47 87.472,31.849 82.14,21.293 76.807,10.737 71.559,0.138 69.184,-4.6579 66.844,-9.4704 64.5,-14.281 60.844,-9.3542 57.188,-4.4271 53.531,0.5 z"
                 id="path3515" />
              <path
                 style="opacity:0.089952"
                 inkscape:connector-curvature="0"
                 d="m 64,-14.969 c -3.575,5.3287 -8.3,10.244 -11.188,15.813 77.438,136.09 135.93,282.11 186.35,430.17 67.82,200 120.79,404.47 177.06,607.89 3.08,-0.1 -0.58,-7.6 -0.26,-10.6 -7.67,-47.96 -14.97,-95.98 -22.86,-143.87 -42.76,-156.67 -86.96,-312.98 -138.84,-466.9 -33.15,-98.2 -70.52,-195.12 -116.52,-288.05 C 114.012,81.159 88.704,33.625 65.127,-14.776 l -0.5,-0.376 -0.625,0.187 z"
                 id="path3517" />
              <path
                 style="opacity:0.089952"
                 inkscape:connector-curvature="0"
                 d="m 63.625,-15.562 c -3.623,5.6125 -9.246,10.582 -11.437,16.75 91.502,160.97 156.73,335.36 213.03,511.36 55.43,173.96 101.73,350.63 150.34,526.55 5.61,2.4 0.44,-9.2 0.85,-12.4 -7.8,-47.99 -14.72,-96.15 -23.08,-144 -46.96,-171.54 -95.23,-343.03 -154.12,-510.79 -33.3,-95.11 -72.21,-188.24 -118.38,-277.84 -18.36,-36.388 -37.252,-72.509 -55.08,-109.16 -0.58,-0.941 -1.265,-0.783 -2.125,-0.472 z"
                 id="path3519" />
              <path
                 style="opacity:0.089952"
                 inkscape:connector-curvature="0"
                 d="m 63.344,-16.219 c -3.987,5.642 -9.263,10.875 -12,17.156 95.946,169.1 163.29,352.77 221.49,537.96 51.76,165.5 95.86,333.26 142.05,500.4 6.83,4.4 2.64,-8.1 2.37,-11.7 -7.85,-48.36 -14.85,-96.87 -23.23,-145.09 -46.07,-168.41 -93.5,-336.6 -150.87,-501.54 -33.83,-97.39 -73.14,-192.79 -120.34,-284.54 -18.76,-37.299 -38.171,-74.279 -56.435,-111.84 -0.879,-1.12 -1.732,-1.234 -3.031,-0.809 z"
                 id="path3521" />
              <path
                 style="opacity:0.089952"
                 inkscape:connector-curvature="0"
                 d="m 63.188,-16.938 c -4.36,5.698 -9.83,11.285 -12.532,17.907 95.894,169.38 163.33,352.87 221.52,538.15 51.7,165.44 95.9,333.26 142.04,500.38 5.86,6.2 6.16,-5.3 4.22,-9.1 -7.92,-49.01 -15.15,-98.18 -23.5,-147.11 -47.14,-172.23 -95.56,-344.32 -154.75,-512.79 -33.34,-95.18 -72.34,-188.33 -118.57,-277.97 -18.17,-36.08 -36.934,-71.891 -54.62,-108.22 -1.192,-1.484 -1.979,-1.662 -3.812,-1.248 z"
                 id="path3523" />
              <path
                 style="opacity:0.089952"
                 inkscape:connector-curvature="0"
                 d="m 63.125,-17.688 c -4.844,5.658 -10.403,11.696 -13.187,18.626 29.717,53.255 57.622,107.84 82.582,163.61 89.77,199.89 152.24,410.76 211.29,621.45 23.54,84.48 46.38,169.15 69.72,253.7 5.38,7.1 8.69,-3.7 5.75,-8.4 -7.96,-49.38 -15.28,-98.9 -23.65,-148.2 -47.2,-172.47 -95.73,-344.77 -155.01,-513.54 -33.13,-94.31 -71.68,-186.66 -117.47,-275.56 -18.46,-36.677 -37.562,-73.055 -55.494,-110 -1.298,-1.638 -2.477,-2.039 -4.531,-1.688 z"
                 id="path3525" />
            </g>
          </g>
        </g>
      </g>
      <text
         sodipodi:linespacing="125%"
         id="text8005"
         y="895.93817"
         x="382.86212"
         style="font-size:40px;font-style:normal;font-weight:normal;line-height:125%;letter-spacing:0px;word-spacing:0px;fill:#000000;fill-opacity:1;stroke:none;font-family:Sans"
         xml:space="preserve"><tspan
           style="font-size:48px;font-style:normal;font-variant:normal;font-weight:500;font-stretch:normal;text-align:center;text-anchor:middle;font-family:Ubuntu;-inkscape-font-specification:Ubuntu Medium"
           y="895.93817"
           x="388.44025"
           id="tspan8007"
           sodipodi:role="line">Open </tspan><tspan
           id="tspan3245"
           style="font-size:48px;font-style:normal;font-variant:normal;font-weight:500;font-stretch:normal;text-align:center;text-anchor:middle;font-family:Ubuntu;-inkscape-font-specification:Ubuntu Medium"
           y="955.93817"
           x="382.86212"
           sodipodi:role="line">Font</tspan></text>
    </g>
  </g>
</svg>
